<svg width="777" height="777" viewBox="0 0 777 777" fill="none" xmlns="http://www.w3.org/2000/svg">
<g style="mix-blend-mode:overlay">
<path d="M530.78 671.3L530.388 670.482L531.885 669.457L527.706 661.106L527.373 663.869L525.468 672.118L525.652 672.574L527.211 672.076L527.603 672.894L523.006 675.227L522.614 674.409L523.87 673.523L518.723 663.079L517.259 663.603L516.867 662.785L521.559 660.477L521.951 661.295L520.6 662.156L524.849 670.628L525.131 668.055L527.087 659.616L526.739 659.013L525.059 659.582L524.667 658.764L529.359 656.456L529.751 657.274L528.4 658.134L533.547 668.579L534.986 668.149L535.378 668.967L530.78 671.3Z" fill="black"/>
<path d="M519.405 676.502C518.897 676.876 518.536 677.084 518.174 677.293C517.813 677.502 517.451 677.71 517.115 677.824C515.72 678.469 514.522 678.759 513.546 678.599C512.57 678.44 511.886 677.951 511.45 676.917C511.084 676.004 511.002 675.168 511.327 674.338C511.651 673.508 512.235 672.85 512.983 672.337C511.95 672.773 511.018 672.829 510.163 672.6C509.333 672.276 508.769 671.717 508.377 670.899C507.802 669.625 507.772 668.598 508.242 667.604C508.712 666.609 509.753 665.767 511.389 664.984C512.086 664.661 512.758 664.434 513.284 664.371C513.836 664.213 514.362 664.151 514.672 664.132C514.983 664.113 515.199 664.069 515.294 664.095L516.291 667.214L515.473 667.606L513.98 665.576C513.289 665.493 512.522 665.695 511.489 666.131C510.696 666.428 510.258 666.922 510.08 667.587C509.902 668.252 510.008 668.994 510.375 669.907C510.697 670.604 511.166 671.137 511.805 671.41C512.445 671.684 513.282 671.602 514.315 671.166L515.47 670.661L515.931 671.599L514.898 672.035C514.441 672.218 514.054 672.522 513.642 672.921C513.324 673.345 513.102 673.795 512.975 674.27C512.942 674.771 512.98 675.392 513.232 675.969C513.529 676.761 514.023 677.199 514.593 677.352C515.163 677.505 515.81 677.373 516.603 677.076C517.085 676.797 517.541 676.614 517.833 676.285C518.125 675.956 518.296 675.696 518.347 675.506L517.994 673.782L519.054 673.251L520.394 675.851C520.274 675.92 519.912 676.129 519.405 676.502Z" fill="black"/>
<path d="M504.181 681.998L505.69 681.689L506.056 682.602L503.679 683.493C503.317 683.702 502.766 683.86 502.189 684.112C501.612 684.365 501.25 684.574 501.009 684.713C499.424 685.307 498.156 685.476 497.301 685.247C496.446 685.018 495.787 684.434 495.446 683.426C495.149 682.634 495.068 681.797 495.367 681.062C495.571 680.302 496.154 679.643 496.877 679.226C495.749 679.637 494.792 679.788 493.962 679.463C493.132 679.139 492.473 678.555 492.132 677.547C491.627 676.393 491.717 675.297 492.308 674.233C492.898 673.169 494.059 672.258 495.98 671.55C496.437 671.367 496.773 671.253 497.204 671.165C498.092 670.893 498.669 670.641 498.884 670.597L501.167 669.68L501.438 670.568L500.018 671.308L504.181 681.998ZM496.277 672.343C495.123 672.848 494.375 673.361 493.981 674.07C493.587 674.779 493.694 675.521 493.965 676.409C494.332 677.322 494.8 677.855 495.44 678.128C496.08 678.401 496.916 678.32 497.95 677.884C499.104 677.378 499.871 677.176 500.233 676.968L498.268 671.756C497.862 671.749 497.285 672.002 496.277 672.343ZM499.54 678.412L498.627 678.778C497.835 679.075 497.302 679.543 497.028 680.183C496.755 680.823 496.767 681.539 497.159 682.357C497.456 683.15 497.924 683.683 498.469 683.93C499.014 684.178 499.85 684.097 500.884 683.661C501.34 683.478 501.702 683.269 502.158 683.086L502.52 682.877L500.669 678.001C500.428 678.14 500.092 678.254 499.54 678.412Z" fill="black"/>
<path d="M489.343 688.717L487.422 689.425L479.012 678.616L477.84 678.811L477.568 677.923L482.273 676.332L482.544 677.219L481.149 677.864L482.851 680.255L488.012 678.481L487.965 675.616L486.361 675.899L486.089 675.012L490.337 673.603L490.609 674.491L489.55 675.022L489.343 688.717ZM487.356 686.25L488.311 687.626L488.174 685.858L488.017 679.602L483.528 681.15L487.356 686.25Z" fill="black"/>
<path d="M474.727 679.402C475.868 679.708 476.741 680.248 477.514 681.168C478.286 682.087 478.912 683.172 479.246 684.586C479.606 685.904 479.68 687.147 479.444 688.408C479.208 689.668 478.643 690.637 477.818 691.435C476.993 692.232 476.004 692.884 474.78 693.269C473.893 693.541 472.72 693.736 471.383 693.785L470.762 693.822L470.005 690.564L471.229 690.179L472.386 692.322C472.576 692.373 472.956 692.475 473.362 692.482C473.767 692.488 474.319 692.331 474.965 692.198C475.732 691.996 476.36 691.554 476.824 690.965C477.287 690.376 477.611 689.546 477.65 688.64C477.689 687.734 477.589 686.586 477.274 685.483C476.958 684.38 476.522 683.347 475.915 682.573C475.307 681.799 474.674 681.12 473.94 680.821C473.205 680.522 472.324 680.388 471.436 680.66C470.79 680.792 470.308 681.07 470.067 681.209C469.826 681.349 469.534 681.678 469.363 681.937L469.138 683.914L467.966 684.11L467.652 681.479C467.867 681.435 468.229 681.226 468.711 680.948C469.098 680.644 469.459 680.436 469.916 680.252C470.277 680.044 470.829 679.886 471.38 679.728C472.439 679.197 473.587 679.097 474.727 679.402Z" fill="black"/>
<path d="M460.64 693.962C460.265 694.982 459.7 695.951 459.021 696.584C458.222 697.286 457.378 697.773 456.421 697.924C455.223 698.214 454.127 698.124 453.202 697.775C452.277 697.425 451.428 696.79 450.751 695.896C450.074 695.001 449.543 693.942 449.304 692.554C448.995 691.045 448.946 689.708 449.157 688.542C449.393 687.281 449.958 686.312 450.688 685.489C451.417 684.666 452.356 684.205 453.459 683.889C454.657 683.599 455.779 683.594 456.799 683.969C457.819 684.344 458.572 684.954 459.275 685.753C459.952 686.647 460.483 687.706 460.722 689.095L463.645 688.452L462.421 683.133L460.843 683.321L460.667 682.459L465.675 681.255L465.851 682.117L464.387 682.641L467.06 693.951L468.518 693.832L468.694 694.694L463.807 695.829L463.63 694.967L465.095 694.443L463.96 689.555L461.012 690.293C461.036 691.725 460.92 692.916 460.64 693.962ZM458.573 694.834C458.999 693.624 459.001 692.097 458.535 690.036C458.087 688.287 457.442 686.892 456.549 686.041C455.657 685.191 454.637 684.816 453.344 685.08C452.145 685.371 451.441 686.099 451.041 687.214C450.64 688.328 450.708 689.976 451.174 692.037C451.622 693.786 452.172 695.156 453.064 696.006C453.931 696.952 454.977 697.232 456.08 696.916C457.348 696.747 458.147 696.044 458.573 694.834Z" fill="black"/>
<path d="M439.366 693.151C438.803 692.592 437.979 691.862 437.112 690.917C436.479 690.238 436.106 689.731 435.777 689.439C435.448 689.147 435.188 688.975 434.998 688.924L434.307 688.841L434.131 687.979L436.381 687.563C436.692 687.545 437.046 687.742 437.445 688.154C437.844 688.567 438.477 689.245 439.154 690.14C439.996 691.18 440.629 691.859 441.192 692.418C441.66 692.95 442.11 693.173 442.541 693.085L443.714 692.889L442.776 687.647L441.128 687.715L440.951 686.853L445.978 685.959L446.129 686.916L444.69 687.345L446.717 698.787L448.244 698.789L448.395 699.746L443.489 700.57L443.389 699.423L444.854 698.899L443.941 693.562L442.337 693.845L439.516 699.812L441.069 699.718L441.22 700.675L436.719 701.507L436.568 700.549L438.008 700.12L441.07 694.014C440.569 693.982 439.955 693.614 439.366 693.151Z" fill="black"/>
<path d="M431.012 688.977C432.006 689.447 432.734 690.151 433.265 691.21C433.822 692.174 434.207 693.398 434.446 694.786C434.685 696.174 434.544 697.461 434.118 698.671C433.718 699.786 433.057 700.729 432.258 701.432C431.363 702.109 430.425 702.57 429.157 702.74C427.243 703.042 425.627 702.609 424.501 701.492C423.374 700.375 422.564 698.834 422.339 696.635C422.125 695.152 422.266 693.865 422.667 692.75C423.093 691.54 423.728 690.692 424.553 689.894C425.447 689.217 426.48 688.781 427.653 688.586C428.921 688.417 430.017 688.507 431.012 688.977ZM431.785 699.777C432.306 698.592 432.498 697.116 432.247 695.012C432.04 693.123 431.49 691.753 430.648 690.713C429.807 689.672 428.787 689.297 427.614 689.492C426.441 689.687 425.572 690.269 425.051 691.454C424.53 692.638 424.313 694.21 424.589 696.219C424.796 698.108 425.346 699.478 426.213 700.423C426.985 701.343 427.98 701.813 429.247 701.644C430.369 701.639 431.263 700.961 431.785 699.777Z" fill="black"/>
<path d="M419.638 702.532L421.14 702.629L421.196 703.56L418.686 703.805C418.281 703.798 417.729 703.956 417.108 703.993C416.461 704.125 416.056 704.118 415.84 704.162C414.167 704.325 412.881 704.184 412.102 703.67C411.323 703.156 410.905 702.433 410.78 701.381C410.698 700.544 410.928 699.689 411.296 699.074C411.664 698.46 412.413 697.948 413.3 697.676C412.153 697.776 411.177 697.616 410.398 697.102C409.619 696.588 409.228 695.77 409.172 694.838C409.097 693.596 409.377 692.551 410.227 691.658C411.078 690.765 412.447 690.216 414.526 690.06C414.957 689.972 415.363 689.978 415.864 690.011C416.795 689.955 417.416 689.917 417.606 689.968L420.116 689.724L420.172 690.656L418.664 690.965L419.638 702.532ZM414.652 691.112C413.409 691.186 412.496 691.553 412.033 692.142C411.475 692.705 411.271 693.465 411.422 694.423C411.478 695.354 411.8 696.052 412.32 696.395C412.839 696.738 413.694 696.967 414.746 696.841C415.989 696.767 416.825 696.685 417.161 696.572L416.705 691.051C416.325 690.949 415.704 690.986 414.652 691.112ZM416.209 697.844L415.157 697.97C414.32 698.051 413.623 698.374 413.28 698.893C412.937 699.412 412.733 700.172 412.815 701.009C412.896 701.846 413.123 702.518 413.643 702.861C414.162 703.203 414.922 703.407 415.974 703.282C416.405 703.193 416.906 703.226 417.363 703.043L417.794 702.954L417.356 697.744C417.046 697.763 416.735 697.782 416.209 697.844Z" fill="black"/>
<path d="M390.286 705.26L390.23 704.328L391.833 704.045L391.48 692.441L389.693 692.267L389.637 691.336L394.865 691.209L394.921 692.14L393.343 692.329L393.671 704.028L399.616 703.89L399.288 692.19L397.596 692.042L397.54 691.111L402.769 690.984L402.825 691.915L401.341 692.129L401.695 703.734L403.267 703.951L403.322 704.883L390.286 705.26Z" fill="black"/>
<path d="M385.878 692.06C386.726 692.695 387.429 693.494 387.839 694.623C388.275 695.656 388.445 696.924 388.469 698.356C388.397 699.763 388.161 701.024 387.571 702.088C386.98 703.152 386.25 703.975 385.286 704.532C384.322 705.088 383.219 705.404 382.097 705.409C380.164 705.4 378.72 704.708 377.714 703.521C376.733 702.24 376.26 700.585 376.25 698.342C376.226 696.909 376.583 695.579 377.173 694.515C377.764 693.451 378.519 692.533 379.483 691.976C380.447 691.42 381.55 691.104 382.767 691.125C383.984 691.145 385.029 691.425 385.878 692.06ZM385.123 702.858C385.809 701.82 386.216 700.299 386.251 698.271C386.234 696.433 385.925 694.925 385.299 693.84C384.673 692.756 383.704 692.19 382.487 692.17C381.27 692.15 380.306 692.706 379.621 693.745C378.935 694.783 378.502 696.399 378.468 698.427C378.459 700.36 378.698 701.748 379.419 702.858C380.046 703.942 381.015 704.507 382.231 704.528C383.404 704.333 384.343 703.871 385.123 702.858Z" fill="black"/>
<path d="M370.371 695.952C370.735 694.216 371.161 693.006 371.795 692.157C372.113 691.733 372.405 691.404 372.766 691.195C373.128 690.986 373.559 690.898 373.964 690.905C374.56 690.963 374.966 690.97 375.251 691.046L375.249 692.573C374.964 692.497 374.463 692.465 373.868 692.407C373.677 692.356 373.462 692.4 373.221 692.539C372.98 692.678 372.834 692.843 372.688 693.007C371.59 694.445 370.991 697.442 370.7 701.947L370.603 703.449L372.745 703.82L372.706 704.726L361.882 704.066L361.921 703.16L363.689 703.023L364.457 691.413L362.601 691.119L362.64 690.213L368.337 690.619L368.298 691.526L366.339 691.612L365.571 703.222L369.386 703.429L369.534 701.737C369.809 699.57 370.033 697.593 370.371 695.952Z" fill="black"/>
<path d="M358.493 702.649L360.013 703.056L359.879 703.937L350.374 702.918L350.447 699.984L351.544 700.074L351.871 701.893L356.49 702.52L357.08 697.279L354.006 696.965L353.599 698.486L352.598 698.421L353.027 694.156L354.029 694.221L354.096 695.869L357.144 696.278L357.715 690.727L352.424 690.328L351.217 692.551L350.127 692.055L350.993 688.824L361.284 689.952L361.15 690.833L359.623 690.831L358.493 702.649Z" fill="black"/>
<path d="M343.057 700.957L346.225 701.297L347.434 697.547L348.6 697.757L347.586 702.68L336.041 700.911L336.554 695.956L337.72 696.166L337.772 700.152L340.985 700.708L342.684 689.042L340.093 688.45L340.227 687.569L347.273 688.642L347.139 689.523L344.731 689.387L343.057 700.957Z" fill="black"/>
<path d="M329.727 691.784L330.608 691.918C330.944 691.804 331.356 691.405 331.699 690.886C332.042 690.367 332.626 689.709 333.14 688.93C333.654 688.151 334.118 687.562 334.435 687.138C334.752 686.713 334.993 686.574 335.184 686.625L337.705 687.097L337.571 687.978L336.83 688.085C336.614 688.129 336.398 688.173 336.107 688.502C335.84 688.736 335.402 689.23 334.939 689.819C334.33 690.572 333.866 691.161 333.454 691.56C333.016 692.054 332.654 692.263 332.198 692.446C333.002 692.865 333.566 693.423 333.888 694.121C334.21 694.818 334.292 695.655 334.132 696.631C333.845 698.082 333.185 699.025 332.272 699.392C331.264 699.733 330.022 699.808 328.381 699.47C328 699.368 327.62 699.266 327.05 699.113C326.48 698.96 326.005 698.833 325.72 698.757L323.103 698.259L323.237 697.378L324.834 697.501L327.078 686.083L325.393 685.53L325.527 684.649L330.951 685.695L330.817 686.576L329.03 686.402L328.137 691.256L329.727 691.784ZM327.184 698.232C327.754 698.385 328.23 698.513 328.61 698.614C329.585 698.774 330.302 698.762 330.904 698.414C331.507 698.066 331.875 697.452 332.06 696.381C332.22 695.406 332.138 694.569 331.695 693.941C331.253 693.313 330.638 692.945 329.688 692.69C328.712 692.53 328.047 692.352 327.736 692.371L326.639 697.985L327.184 698.232Z" fill="black"/>
<path d="M316.603 695.906L319.79 696.556L321.284 692.882L322.519 693.213L321.031 698.009L309.74 695.29L310.659 690.341L311.799 690.647L311.446 694.626L314.582 695.466L317.257 683.961L314.717 683.178L314.946 682.323L321.935 683.992L321.705 684.847L319.253 684.495L316.603 695.906Z" fill="black"/>
<path d="M304.599 680.264C305.397 681.088 305.833 682.122 306.028 683.295C306.223 684.467 306.082 685.754 305.7 687.179C305.344 688.51 304.633 689.643 303.808 690.441C302.957 691.333 301.898 691.864 300.795 692.18C299.597 692.47 298.501 692.38 297.265 692.049C296.315 691.794 295.321 691.324 294.066 690.683L293.522 690.435L294.673 687.28L295.908 687.611L295.677 689.994C295.816 690.235 296.076 690.406 296.431 690.603C296.785 690.8 297.33 691.048 297.9 691.201C298.66 691.404 299.377 691.392 300.144 691.191C300.816 690.963 301.564 690.451 302.078 689.672C302.688 688.918 303.158 687.924 303.463 686.784C303.769 685.643 303.954 684.572 303.924 683.546C303.893 682.519 303.622 681.631 303.204 680.908C302.787 680.185 302.103 679.696 301.153 679.442C300.487 679.264 300.012 679.136 299.607 679.129C299.201 679.123 298.865 679.236 298.624 679.375L297.405 680.882L296.316 680.387L297.479 677.948C297.764 678.024 298.169 678.031 298.67 678.064C299.171 678.096 299.576 678.103 299.982 678.109C300.387 678.116 300.958 678.269 301.528 678.422C302.763 678.753 303.827 679.344 304.599 680.264Z" fill="black"/>
<path d="M286.16 688.258L286.484 687.429L288.315 687.817L291.4 678.967L289.224 680.625L282.013 685.11L281.885 685.585L283.425 686.303L283.1 687.133L278.26 685.429L278.585 684.599L280.036 684.886L283.801 673.876L282.357 673.183L282.681 672.353L287.616 674.083L287.291 674.913L285.65 674.575L282.541 683.52L284.596 681.932L292.023 677.403L292.201 676.738L290.567 675.994L290.891 675.164L295.826 676.894L295.502 677.724L293.956 677.411L290.191 688.422L291.54 689.089L291.215 689.919L286.16 688.258Z" fill="black"/>
<path d="M267.067 681.207L268.72 676.557L269.93 676.983L269.032 680.715L272.776 682.329L277.136 671.377L274.153 669.966L274.477 669.137L281.306 671.781L280.982 672.611L278.986 672.076L274.771 682.864L276.545 683.849L276.221 684.678L267.067 681.207Z" fill="black"/>
<path d="M264.528 678.897L265.732 679.729L265.407 680.559L260.764 678.5L261.089 677.67L262.609 678.078L264.643 673.53L258.625 670.899L256.591 675.447L257.89 676.304L257.565 677.134L253.017 675.1L253.342 674.27L254.767 674.652L259.457 663.992L258.133 663.23L258.458 662.4L263.006 664.433L262.681 665.263L261.186 664.761L258.93 669.758L264.948 672.389L267.204 667.392L265.785 666.604L266.109 665.774L270.847 667.859L270.523 668.688L269.123 668.211L264.528 678.897Z" fill="black"/>
<path d="M246.817 672.012L245.018 671.123L246.726 657.525L245.783 656.864L246.202 656.06L250.604 658.258L250.185 659.062L248.69 658.56L248.236 661.392L253.088 663.813L255.081 661.698L253.687 660.816L254.107 660.011L258.059 661.987L257.64 662.792L256.525 662.391L246.817 672.012ZM247.061 668.819L246.723 670.46L247.891 669.143L252.263 664.61L248.051 662.463L247.061 668.819Z" fill="black"/>
<path d="M239.507 658.239C240.579 656.896 241.55 655.934 242.419 655.352C242.901 655.074 243.237 654.96 243.668 654.872C244.074 654.879 244.454 654.981 244.904 655.203C245.448 655.451 245.778 655.743 246.037 655.914L245.465 657.289C245.206 657.117 244.851 656.92 244.237 656.552C244.072 656.406 243.882 656.355 243.666 656.399C243.451 656.443 243.235 656.487 242.994 656.627C241.453 657.436 239.575 659.886 237.288 663.857L236.526 665.181L238.318 666.476L237.899 667.28L228.513 662.015L228.932 661.211L230.592 661.859L236.276 651.669L234.718 650.64L235.138 649.836L240.198 652.618L239.779 653.422L238.049 652.653L232.391 662.749L235.678 664.546L236.491 663.032C237.38 661.234 238.434 659.581 239.507 658.239Z" fill="black"/>
<path d="M211.458 651.538L211.972 650.759L213.607 651.502L219.81 641.655L218.468 640.582L218.982 639.803L223.586 642.768L223.072 643.547L221.533 642.829L215.329 652.677L216.671 653.75L216.157 654.528L211.458 651.538ZM224.271 653.138C222.973 652.28 222.201 651.36 221.86 650.352C221.519 649.344 221.704 648.273 222.415 647.14C223.151 645.911 224.141 645.26 225.314 645.065C226.486 644.87 227.722 645.201 229.045 645.963C229.21 646.109 229.4 646.16 229.565 646.306C229.729 646.452 229.894 646.598 230.084 646.648C230.673 647.112 231.192 647.455 231.616 647.772L233.788 649.169L233.274 649.948L231.83 649.255L225.626 659.103L226.779 660.125L226.264 660.903L221.73 658.059L222.244 657.28L223.974 658.049L226.278 654.388L224.271 653.138ZM229.614 647.643C229.449 647.497 229.19 647.325 228.74 647.103C227.866 646.563 227.011 646.334 226.244 646.536C225.476 646.738 224.823 647.276 224.163 648.219C223.623 649.093 223.419 649.854 223.621 650.621C223.823 651.388 224.361 652.041 225.235 652.581L226.888 653.635L230.247 648.322C230.038 647.96 229.873 647.814 229.614 647.643Z" fill="black"/>
<path d="M205.02 645.534L206.052 646.626L205.538 647.405L201.46 644.377L201.974 643.598L203.393 644.385L206.421 640.308L201.14 636.448L198.112 640.526L199.143 641.617L198.629 642.396L194.646 639.394L195.161 638.615L196.51 639.282L203.397 629.923L202.34 628.927L202.854 628.148L206.932 631.176L206.418 631.955L205.094 631.193L201.895 635.53L207.176 639.39L210.375 635.052L209.153 633.91L209.668 633.131L213.841 636.184L213.326 636.963L212.003 636.201L205.02 645.534Z" fill="black"/>
<path d="M189.182 635.078L187.606 633.738L192.191 620.809L191.419 619.889L192.003 619.231L195.865 622.303L195.255 623.056L193.957 622.199L192.934 624.879L197.195 628.363L199.656 626.781L198.529 625.665L199.113 625.006L202.551 627.761L201.967 628.419L200.903 627.829L189.182 635.078ZM190.187 632.087L189.564 633.652L190.966 632.602L196.18 629.11L192.508 626.088L190.187 632.087Z" fill="black"/>
<path d="M178.079 624.056L179.389 625.629L178.805 626.287L175.14 622.861L178.901 614.905L180.083 612.777L178.078 614.175L170.487 618.558L166.891 615.252L167.475 614.594L169.172 615.863L175.99 606.384L174.914 605.077L175.498 604.419L179.398 608.112L178.814 608.77L177.446 607.793L172.393 614.485L170.197 617.36L172.607 615.969L181.593 610.941L182.486 611.791L178.641 620.438L177.034 623.776L179.724 621.339L186.024 615.693L184.758 614.335L185.342 613.677L188.938 616.983L188.354 617.642L187.081 616.689L178.079 624.056Z" fill="black"/>
<path d="M161.751 610.106L160.321 608.603L166.445 596.391L165.793 595.402L166.472 594.769L169.896 598.334L169.218 598.967L167.945 598.015L166.541 600.593L170.39 604.476L172.99 603.136L172.009 601.854L172.688 601.221L175.809 604.4L175.13 605.033L174.186 604.373L161.751 610.106ZM163.136 607.218L162.323 608.732L163.864 607.922L169.521 605.058L166.166 601.613L163.136 607.218Z" fill="black"/>
<path d="M155.544 601.72L156.335 602.951L155.656 603.584L154.017 601.718C153.688 601.426 153.384 601.04 153.055 600.748C152.561 600.31 152.092 599.777 151.694 599.364C150.523 598.032 149.922 596.853 149.892 595.826C149.861 594.799 150.401 593.925 151.372 592.963C152.146 592.356 152.894 591.843 153.731 591.762C154.593 591.585 155.474 591.719 156.303 592.044C157.133 592.368 157.887 592.977 158.589 593.777C158.823 594.043 159.058 594.309 159.292 594.576C159.526 594.842 159.665 595.083 159.76 595.109L162.837 592.368L161.249 590.313L161.928 589.68L166.004 594.235L165.325 594.868L164.173 593.847L155.544 601.72ZM157.885 594.504C157.252 593.826 156.448 593.406 155.662 593.298C154.876 593.189 153.843 593.625 152.872 594.587C152.072 595.29 151.679 595.999 151.69 596.715C151.702 597.431 152.094 598.249 152.797 599.049C153.031 599.315 153.36 599.607 153.689 599.899C153.854 600.045 154.019 600.191 154.088 600.312L159.03 595.932C158.796 595.665 158.423 595.158 157.885 594.504Z" fill="black"/>
<path d="M155.844 583.874C156.039 585.047 155.854 586.118 155.264 587.182C154.768 588.271 153.892 589.259 152.826 590.195C151.761 591.132 150.606 591.638 149.434 591.833C148.261 592.028 147.044 592.007 145.955 591.512C144.84 591.111 143.896 590.451 143.055 589.41C142.447 588.637 141.796 587.647 141.195 586.468L140.942 585.891L143.625 583.859L144.397 584.779L142.887 586.615C142.931 586.831 142.95 587.141 143.133 587.598C143.342 587.96 143.62 588.441 143.993 588.949C144.531 589.602 145.145 589.971 145.906 590.174C146.666 590.378 147.503 590.297 148.39 590.025C149.278 589.754 150.242 589.197 151.162 588.425C152.082 587.653 152.786 586.925 153.326 586.051C153.865 585.177 154.19 584.347 154.203 583.536C154.217 582.725 153.92 581.932 153.408 581.184C153.034 580.677 152.61 580.359 152.281 580.067C151.952 579.775 151.666 579.699 151.356 579.718L149.46 580.33L148.809 579.341L151.098 578.019C151.263 578.165 151.592 578.457 152.016 578.774C152.44 579.091 152.795 579.288 153.124 579.58C153.453 579.872 153.757 580.259 154.251 580.697C155.213 581.668 155.744 582.727 155.844 583.874Z" fill="black"/>
<path d="M125.37 565.319L126.118 564.807L127.264 566.234L135.084 560.996L132.34 560.974L123.906 560.14L123.519 560.443L124.233 561.959L123.485 562.471L120.67 558.152L121.418 557.64L122.45 558.731L132.129 552.259L131.389 550.839L132.138 550.326L135.048 554.671L134.299 555.183L133.223 553.876L125.282 559.184L127.836 559.156L136.461 560.041L137.063 559.693L136.254 558.152L137.002 557.639L139.912 561.984L139.164 562.496L138.158 561.31L128.479 567.782L129.124 569.177L128.375 569.689L125.37 565.319Z" fill="black"/>
<path d="M118.747 554.683C118.348 554.271 118.045 553.884 117.715 553.592C117.386 553.3 117.273 552.964 117.038 552.697C116.273 551.372 115.863 550.243 115.832 549.217C115.802 548.19 116.29 547.506 117.254 546.949C118.098 546.462 118.96 546.286 119.815 546.515C120.671 546.744 121.354 547.233 121.987 547.912C121.431 546.948 121.185 545.965 121.414 545.11C121.643 544.255 122.132 543.571 122.881 543.058C123.99 542.337 125.163 542.142 126.183 542.517C127.203 542.893 128.191 543.768 129.19 545.36C129.538 545.963 129.886 546.565 130.043 547.117C130.201 547.668 130.385 548.125 130.498 548.461C130.612 548.797 130.656 549.012 130.63 549.107L127.72 550.467L127.233 549.623L129.003 547.958C128.991 547.242 128.694 546.45 128.112 545.581C127.695 544.858 127.106 544.394 126.51 544.337C125.915 544.279 125.053 544.455 124.209 544.942C123.581 545.385 123.143 545.879 122.87 546.519C122.692 547.184 122.868 548.046 123.45 548.915L124.171 550.025L123.302 550.607L122.746 549.643C122.468 549.161 122.138 548.869 121.714 548.552C121.29 548.234 120.815 548.107 120.314 548.075C119.813 548.042 119.262 548.2 118.659 548.548C117.936 548.966 117.594 549.485 117.441 550.055C117.383 550.651 117.515 551.297 117.933 552.02C118.211 552.502 118.515 552.889 118.869 553.086C119.199 553.378 119.484 553.454 119.699 553.41L121.379 552.842L122.031 553.831L119.665 555.438C119.475 555.387 119.241 555.121 118.747 554.683Z" fill="black"/>
<path d="M111.4 540.288L111.924 541.753L111.106 542.144L109.88 539.88C109.671 539.519 109.393 539.037 109.019 538.53C108.646 538.022 108.437 537.661 108.298 537.42C107.489 535.879 107.199 534.68 107.238 533.774C107.372 532.893 107.861 532.21 108.825 531.653C109.643 531.261 110.41 531.059 111.17 531.263C111.956 531.372 112.64 531.86 113.178 532.514C112.647 531.455 112.401 530.472 112.63 529.617C112.859 528.762 113.348 528.078 114.286 527.616C115.371 526.99 116.518 526.89 117.607 527.386C118.722 527.786 119.754 528.878 120.772 530.78C120.981 531.142 121.164 531.598 121.373 531.96C121.765 532.778 122.018 533.355 122.182 533.501L123.339 535.644L122.521 536.036L121.636 534.78L111.4 540.288ZM114.398 535.183L113.936 534.245C113.519 533.522 113.05 532.989 112.385 532.811C111.72 532.632 111.073 532.765 110.255 533.157C109.532 533.574 108.999 534.042 108.847 534.613C108.694 535.183 108.896 535.95 109.357 536.888C109.566 537.25 109.844 537.732 110.053 538.093L110.262 538.455L114.885 536.027C114.885 536.027 114.676 535.665 114.398 535.183ZM120.049 531.197C119.423 530.113 118.79 529.434 118.055 529.135C117.32 528.837 116.579 528.943 115.735 529.43C114.892 529.917 114.359 530.386 114.276 531.076C114.193 531.767 114.299 532.509 114.856 533.473C115.482 534.557 115.804 535.255 116.013 535.616L120.903 532.954C120.764 532.713 120.511 532.136 120.049 531.197Z" fill="black"/>
<path d="M102.899 526.398L101.976 524.521L111.589 514.874L111.273 513.771L112.091 513.379L114.26 517.831L113.442 518.223L112.582 516.872L110.424 518.84L112.776 523.748L115.648 523.295L115.149 521.736L115.967 521.344L117.857 525.313L117.039 525.705L116.387 524.716L102.899 526.398ZM105.063 524.024L103.731 525.195L105.455 524.842L111.699 523.969L109.6 519.638L105.063 524.024Z" fill="black"/>
<path d="M110.276 510.652C110.091 511.723 109.595 512.812 108.865 513.635C108.136 514.458 107 515.275 105.726 515.85C104.451 516.425 103.183 516.595 101.992 516.479C100.801 516.364 99.6857 515.963 98.7422 515.303C97.7986 514.643 97.052 513.628 96.5464 512.474C96.1799 511.561 95.8643 510.457 95.5997 509.164L95.4674 508.518L98.6376 507.33L99.1432 508.484L97.1389 509.882C97.088 510.072 97.0811 510.478 97.1693 510.909C97.2576 511.34 97.4153 511.892 97.6681 512.469C97.9905 513.166 98.4334 513.794 99.1427 514.188C99.8521 514.582 100.612 514.785 101.544 514.729C102.476 514.673 103.553 514.453 104.707 513.947C105.741 513.511 106.705 512.955 107.504 512.252C108.304 511.55 108.793 510.866 109.022 510.011C109.346 509.181 109.265 508.344 108.873 507.526C108.62 506.949 108.342 506.467 108.107 506.201C107.873 505.934 107.639 505.668 107.259 505.566L105.231 505.532L104.915 504.428L107.527 503.804C107.666 504.045 107.875 504.407 108.179 504.794C108.483 505.181 108.812 505.473 109.02 505.834C109.229 506.196 109.507 506.677 109.76 507.255C110.266 508.409 110.461 509.581 110.276 510.652Z" fill="black"/>
<path d="M94.0852 498.47C93.0144 498.285 92.02 497.815 91.2665 497.206C90.5131 496.597 89.931 495.728 89.59 494.72C89.1794 493.591 89.0539 492.539 89.334 491.493C89.6141 490.448 90.0588 489.549 90.8582 488.846C91.6831 488.049 92.647 487.492 93.8961 487.012C95.3607 486.488 96.6285 486.318 97.8453 486.338C99.0366 486.454 100.152 486.855 101 487.489C101.849 488.124 102.526 489.019 102.962 490.052C103.372 491.181 103.472 492.328 103.287 493.399C103.102 494.47 102.562 495.343 101.738 496.141C100.913 496.939 99.9232 497.59 98.6741 498.07L99.7481 500.905L104.839 499.009L104.461 497.38L105.349 497.109L107.105 501.959L106.217 502.231L105.477 500.81L94.6226 504.828L94.9314 506.336L94.0438 506.608L92.2623 501.853L93.1499 501.581L93.8897 503.002L98.645 501.22L97.571 498.386C96.3729 498.676 95.1306 498.751 94.0852 498.47ZM92.9467 496.638C94.1821 496.969 95.7604 496.78 97.707 495.978C99.4126 495.314 100.643 494.524 101.424 493.511C102.205 492.497 102.39 491.427 101.979 490.298C101.568 489.169 100.72 488.535 99.5795 488.229C98.4391 487.924 96.8353 488.207 94.9142 488.914C93.2086 489.578 91.9782 490.368 91.2229 491.287C90.4421 492.3 90.2825 493.275 90.6931 494.404C90.9832 495.602 91.8062 496.332 92.9467 496.638Z" fill="black"/>
<path d="M92.2913 477.415C92.7802 476.731 93.4149 475.883 94.2907 474.895C94.8746 474.237 95.3125 473.743 95.6298 473.319C95.9218 472.989 95.9982 472.704 96.0491 472.514L96.0373 471.798L96.9248 471.527L97.651 473.758C97.7902 473.999 97.5678 474.449 97.2504 474.873C96.9076 475.392 96.3237 476.051 95.4989 476.848C94.6231 477.836 93.9187 478.564 93.4554 479.153C92.992 479.742 92.8647 480.217 92.9784 480.553L93.294 481.656L98.404 480.071L98.1462 478.373L99.0338 478.101L100.574 482.996L99.6867 483.267L99.0419 481.872L87.9343 485.313L88.148 486.796L87.2604 487.067L85.7894 482.294L86.6771 482.022L87.3218 483.417L92.4318 481.832L91.933 480.273L85.6422 478.282L85.9254 479.885L85.0378 480.157L83.6806 475.719L84.5682 475.447L85.2384 476.747L91.6684 478.98C91.5547 478.644 91.828 478.004 92.2913 477.415Z" fill="black"/>
<path d="M95.2808 468.539C94.9057 469.559 94.2709 470.408 93.3765 471.085C92.4821 471.762 91.3026 472.363 89.9839 472.722C88.5702 473.056 87.328 473.131 86.1621 472.92C84.9963 472.71 84.0273 472.145 83.2042 471.415C82.3812 470.685 81.8247 469.721 81.5346 468.523C81.0171 466.653 81.2345 465.081 82.2121 463.714C83.1643 462.441 84.6357 461.511 86.7215 460.949C88.1352 460.615 89.4725 460.566 90.6383 460.777C91.8042 460.987 92.8682 461.578 93.6912 462.308C94.5142 463.037 95.0708 464.001 95.3609 465.2C95.651 466.398 95.656 467.52 95.2808 468.539ZM84.6248 470.675C85.8348 471.101 87.3876 471.008 89.3528 470.516C91.1976 470.094 92.5231 469.328 93.3734 468.436C94.2237 467.543 94.5292 466.403 94.2137 465.3C93.9236 464.102 93.1006 463.372 91.8906 462.946C90.6806 462.52 89.0327 462.587 87.0675 463.079C85.2228 463.502 83.8973 464.267 83.047 465.16C82.1967 466.052 81.9166 467.097 82.2067 468.296C82.7123 469.45 83.5098 470.275 84.6248 470.675Z" fill="black"/>
<path d="M80.4305 458.958L80.5237 460.511L79.6616 460.688L79.1069 458.196C79.0187 457.765 78.8609 457.214 78.7031 456.662C78.5454 456.11 78.3621 455.654 78.3434 455.343C77.9906 453.619 78.0111 452.402 78.3353 451.572C78.6595 450.743 79.408 450.23 80.3906 449.984C81.2527 449.808 82.0384 449.916 82.7732 450.215C83.4826 450.609 84.046 451.167 84.4379 451.985C84.1478 450.787 84.1869 449.881 84.6062 449.077C85.0254 448.272 85.7739 447.76 86.731 447.609C87.9292 447.319 89.0951 447.529 90.0131 448.285C90.9566 448.945 91.6964 450.365 92.0934 452.305C92.1816 452.736 92.2698 453.167 92.263 453.573C92.4139 454.53 92.5717 455.081 92.6158 455.297L93.196 457.693L92.3339 457.87L91.8096 456.405L80.4305 458.958ZM84.6753 454.901L84.4293 453.918C84.2528 453.056 83.905 452.454 83.2907 452.085C82.7714 451.743 81.9857 451.634 81.0981 451.905C80.236 452.082 79.6335 452.43 79.3857 452.974C79.1378 453.519 79.0291 454.305 79.2497 455.382C79.3379 455.814 79.4261 456.245 79.6093 456.701L79.723 457.037L84.8008 455.953C84.8517 455.763 84.738 455.427 84.6753 454.901ZM91.1108 452.551C90.8207 451.353 90.4287 450.535 89.7448 450.046C89.156 449.583 88.3702 449.474 87.3876 449.72C86.4305 449.871 85.8025 450.314 85.5547 450.859C85.2118 451.378 85.1727 452.284 85.3932 453.362C85.6833 454.56 85.8598 455.422 85.9734 455.758L91.3872 454.56C91.4636 454.275 91.3313 453.629 91.1108 452.551Z" fill="black"/>
<path d="M73.9688 430.235L74.926 430.084L75.4248 431.643L86.9107 429.832L86.8684 428.089L87.8256 427.938L88.6686 433.155L87.7114 433.306L87.3076 431.772L75.8217 433.583L76.7716 439.542L88.3525 437.756L88.3102 436.013L89.2674 435.862L90.0154 441.053L89.0582 441.204L88.629 439.765L77.143 441.576L77.1158 443.199L76.1586 443.35L73.9688 430.235Z" fill="black"/>
<path d="M86.6007 424.147C86.156 425.046 85.3312 425.844 84.3672 426.4C83.4032 426.957 82.1795 427.342 80.7218 427.461C79.264 427.579 77.9776 427.438 76.8627 427.038C75.7477 426.637 74.8042 425.977 74.1271 425.083C73.4501 424.188 73.014 423.155 72.914 422.007C72.7071 420.119 73.14 418.503 74.2568 417.376C75.3736 416.249 76.9842 415.561 79.1836 415.335C80.6414 415.216 81.9277 415.357 83.0427 415.758C84.1576 416.159 85.1011 416.819 85.8732 417.739C86.5502 418.633 86.9863 419.667 87.0863 420.814C87.2305 422.177 87.0454 423.247 86.6007 424.147ZM75.7564 424.704C76.9154 425.32 78.4173 425.417 80.4962 425.261C82.3851 425.054 83.7292 424.6 84.7696 423.758C85.7845 423.011 86.2547 422.017 86.0851 420.749C85.985 419.602 85.308 418.708 84.1489 418.092C82.9899 417.475 81.393 417.353 79.4091 417.534C77.5202 417.741 76.0811 418.171 75.1357 419.038C74.1208 419.784 73.7457 420.804 73.9153 422.072C73.9898 423.314 74.6669 424.209 75.7564 424.704Z" fill="black"/>
<path d="M80.6928 409.322C82.3847 409.47 83.7407 409.732 84.6401 410.176C85.0898 410.399 85.419 410.691 85.6531 410.957C85.8618 411.319 85.9755 411.655 86.0637 412.086C86.101 412.707 86.0942 413.113 86.0178 413.398L84.5345 413.611C84.5159 413.301 84.5227 412.895 84.5109 412.179C84.4668 411.963 84.4227 411.748 84.2581 411.602C84.0935 411.456 83.9289 411.31 83.6693 411.139C82.1555 410.326 79.0822 410.011 74.5187 410.316L73.0609 410.435L73.0014 412.558L72.0697 412.614L71.3918 401.839L72.3235 401.783L72.6763 403.508L84.2877 402.748L84.3659 400.936L85.2976 400.88L85.7027 406.591L84.771 406.647L84.4691 404.732L72.8832 405.396L73.0814 409.218L74.7293 409.151C77.0678 409.166 79.0008 409.175 80.6928 409.322Z" fill="black"/>
<path d="M72.5241 398.374L72.3067 399.945L71.375 400.001L71.1773 390.476L74.1183 390.143L74.1488 391.17L72.3736 391.713L72.3426 396.39L77.5713 396.263L77.48 393.183L75.9085 392.966L75.878 391.939L80.175 391.868L80.2054 392.895L78.6017 393.178L78.5726 396.328L84.1118 396.182L83.7949 390.903L81.4005 389.956L81.706 388.815L84.944 389.275L85.1281 399.612L84.1964 399.668L84.0081 398.09L72.5241 398.374Z" fill="black"/>
<path d="M72.308 382.834L72.3739 386.009L76.2517 386.743L76.2312 387.959L71.2503 387.541L71.5178 375.9L76.5309 375.817L76.5105 377.034L72.5868 377.612L72.4372 380.831L84.1995 381.029L84.4119 378.336L85.3181 378.375L85.1512 385.46L84.245 385.421L84.0958 382.937L72.308 382.834Z" fill="black"/>
<path d="M79.734 368.425L79.695 369.331C79.9037 369.692 80.2329 369.984 80.8472 370.353C81.3664 370.695 82.0758 371.089 82.9752 371.534C83.8746 371.979 84.4889 372.347 84.9386 372.569C85.3883 372.792 85.6225 373.058 85.5716 373.248L85.4101 375.751L84.5039 375.712L84.3971 374.971C84.3529 374.755 84.1883 374.609 83.9542 374.343C83.5995 374.146 83.1752 373.828 82.4914 373.34C81.687 372.92 81.0982 372.457 80.5789 372.114C80.0596 371.771 79.7559 371.384 79.5472 371.023C79.2229 371.853 78.7596 372.442 78.0111 372.954C77.2881 373.371 76.5211 373.573 75.5198 373.509C74.0179 373.412 73.0235 372.942 72.4669 371.978C71.9104 371.014 71.7408 369.746 71.8631 368.149C71.8699 367.743 71.9717 367.363 72.0295 366.768C72.0873 366.172 72.2146 365.697 72.1959 365.386L72.4083 362.693L73.3145 362.732L73.4077 364.285L85.0173 365.053L85.2856 363.292L86.1918 363.331L85.8367 368.838L84.9305 368.798L84.9136 366.961L79.9073 366.638L79.734 368.425ZM72.9612 366.712C72.8084 367.282 72.7761 367.783 72.7693 368.188C72.7047 369.189 72.8116 369.931 73.2799 370.464C73.7483 370.997 74.388 371.27 75.4843 371.36C76.4856 371.425 77.2527 371.223 77.8807 370.78C78.5086 370.337 78.7123 369.577 78.8719 368.601C78.9365 367.6 78.9943 367.004 78.9061 366.573L73.209 366.167L72.9612 366.712Z" fill="black"/>
<path d="M73.9056 355.964L73.661 359.158L77.4623 360.177L77.3468 361.368L72.3728 360.544L73.6415 348.967L78.6478 349.29L78.5323 350.481L74.6155 350.654L74.1553 353.892L85.8276 355.186L86.3251 352.569L87.2058 352.704L86.4178 359.826L85.537 359.692L85.578 357.258L73.9056 355.964Z" fill="black"/>
<path d="M88.03 342.026C87.3002 342.849 86.3107 343.5 85.2076 343.816C84.1045 344.131 82.7672 344.181 81.4113 343.919C80.0553 343.658 78.8453 343.232 77.9273 342.476C77.0092 341.721 76.2372 340.801 75.8266 339.673C75.416 338.544 75.3159 337.397 75.5519 336.136C75.7115 335.16 76.0171 334.02 76.5382 332.835L76.786 332.29L80.0681 332.966L79.8321 334.227L77.3731 334.281C77.2271 334.446 77.0557 334.705 76.8333 335.155C76.6364 335.51 76.4836 336.08 76.4259 336.676C76.3172 337.461 76.4241 338.203 76.7464 338.9C77.0688 339.598 77.6322 340.156 78.5061 340.696C79.2851 341.21 80.3304 341.49 81.5913 341.726C82.7572 341.937 83.7839 341.907 84.8361 341.781C85.7933 341.63 86.7063 341.264 87.3598 340.726C88.0132 340.188 88.407 339.478 88.5666 338.503C88.6498 337.812 88.6821 337.311 88.6634 337.001C88.6448 336.69 88.5311 336.354 88.3224 335.993L86.6695 334.939L86.9751 333.798L89.4901 334.676C89.4137 334.961 89.5274 335.297 89.5901 335.823C89.6783 336.254 89.646 336.755 89.7343 337.186C89.8225 337.617 89.6951 338.092 89.6119 338.783C89.2809 340.018 88.7853 341.108 88.03 342.026Z" fill="black"/>
<path d="M77.7964 324.718L78.6772 324.852L78.5039 326.639L87.6595 328.583L85.7351 326.642L80.3815 320.013L79.9063 319.885L79.3784 321.475L78.4976 321.341L79.5366 316.323L80.4174 316.457L80.3206 317.959L91.6873 320.394L92.1898 318.899L93.0451 319.128L91.9806 324.241L91.1253 324.012L91.2731 322.32L81.9275 320.325L83.7822 322.146L89.2054 328.896L89.8707 329.074L90.4241 327.389L91.3048 327.523L90.2403 332.636L89.3596 332.502L89.4819 330.905L78.1151 328.471L77.6382 329.871L76.7574 329.736L77.7964 324.718Z" fill="black"/>
<path d="M82.3768 304.963L87.1794 306.046L86.8484 307.281L83.0843 306.884L81.9198 310.85L93.3748 313.715L94.4052 310.63L95.2605 310.86L93.4711 317.917L92.6158 317.688L92.9605 315.642L81.6956 312.827L80.9963 314.677L80.141 314.448L82.3768 304.963Z" fill="black"/>
<path d="M84.3575 302.132L83.6904 303.482L82.8351 303.252L84.3493 298.362L85.2046 298.591L84.9873 300.162L89.7831 301.651L91.6792 295.335L86.8834 293.846L86.2164 295.195L85.3611 294.966L86.8498 290.17L87.7051 290.399L87.5132 291.876L98.6253 295.261L99.1974 293.886L100.053 294.115L98.5639 298.911L97.7086 298.682L98.021 297.136L92.8451 295.545L90.9489 301.861L96.1248 303.452L96.7223 301.982L97.5776 302.212L96.0634 307.103L95.2081 306.873L95.4951 305.422L84.3575 302.132Z" fill="black"/>
<path d="M88.8919 283.689L89.6167 281.744L103.268 281.735L103.859 280.671L104.688 280.996L103.035 285.645L102.205 285.321L102.518 283.775L99.5834 283.702L97.8028 288.827L100.089 290.56L100.781 289.116L101.611 289.44L100.18 293.64L99.3501 293.316L99.5606 292.15L88.8919 283.689ZM92.1621 283.649L90.4702 283.501L91.933 284.504L96.9288 288.287L98.5312 283.827L92.1621 283.649Z" fill="black"/>
<path d="M101.787 274.718C103.275 275.626 104.383 276.432 104.991 277.206C105.295 277.593 105.478 278.049 105.592 278.385C105.68 278.816 105.578 279.197 105.476 279.577C105.228 280.121 105.031 280.476 104.86 280.736L103.46 280.259C103.631 279.999 103.759 279.524 104.007 278.979C104.057 278.789 104.134 278.504 104.064 278.383C104.02 278.168 103.881 277.927 103.742 277.686C102.692 276.284 100.07 274.665 95.8255 273.018L94.4509 272.446L93.441 274.315L92.6111 273.99L96.6221 263.963L97.452 264.287L96.9936 265.998L107.756 270.307L108.595 268.699L109.424 269.023L107.282 274.357L106.452 274.032L106.962 272.132L96.1993 267.822L94.7564 271.306L96.3211 271.929C98.4746 273.015 100.299 273.81 101.787 274.718Z" fill="black"/>
<path d="M104.797 258.922C105.464 257.573 106.22 256.655 107.253 256.218C108.287 255.782 109.288 255.847 110.472 256.368C111.727 257.01 112.619 257.86 112.909 259.058C113.225 260.161 113.084 261.448 112.417 262.797C112.366 262.987 112.22 263.151 112.169 263.342C112.023 263.506 111.972 263.696 111.801 263.956C111.432 264.57 111.184 265.115 110.937 265.66L109.92 267.934L109.116 267.514L109.618 266.019L99.0338 261.044L98.1767 262.342L97.3723 261.923L99.5772 257.116L100.382 257.535L99.8027 259.315L103.685 261.17L104.797 258.922ZM104.8 245.987L105.604 246.406L105.051 248.091L115.54 253.041L116.448 251.552L117.253 251.972L114.902 256.944L114.097 256.525L114.651 254.839L104.162 249.89L103.254 251.378L102.449 250.959L104.8 245.987ZM110.971 263.632C111.117 263.467 111.219 263.087 111.415 262.732C111.86 261.833 111.899 260.927 111.602 260.134C111.305 259.341 110.647 258.758 109.653 258.287C108.753 257.843 107.847 257.804 107.175 258.031C106.477 258.353 105.919 258.917 105.474 259.816L104.705 261.545L110.412 264.195C110.653 264.056 110.825 263.796 110.971 263.632Z" fill="black"/>
<path d="M109.86 238.888L108.933 240.066L108.129 239.647L110.637 235.226L111.442 235.645L110.844 237.115L115.29 239.528L118.466 233.759L114.02 231.345L113.093 232.523L112.289 232.104L114.677 227.752L115.481 228.172L115.004 229.572L125.195 235.256L126.121 234.078L126.926 234.498L124.512 238.944L123.708 238.525L124.305 237.055L119.504 234.444L116.329 240.214L121.13 242.825L122.107 241.457L122.912 241.876L120.377 246.392L119.573 245.973L120.145 244.598L109.86 238.888Z" fill="black"/>
<path d="M118.284 221.894L119.363 220.147L132.726 223.116L133.481 222.198L134.26 222.712L131.612 226.892L130.833 226.377L131.526 224.933L128.675 224.169L125.804 228.799L127.652 231.025L128.7 229.778L129.478 230.292L127.148 234.048L126.369 233.534L126.865 232.444L118.284 221.894ZM121.376 222.519L119.76 222.086L120.956 223.324L125.076 228.094L127.578 224.079L121.376 222.519Z" fill="black"/>
<path d="M127.849 209.383L126.51 210.959L125.731 210.445L128.639 206.437L136.97 209.178L139.269 210.1L137.63 208.235L132.283 201.2L135.19 197.192L135.969 197.706L134.985 199.479L145.321 204.999L146.463 203.777L147.242 204.291L144.017 208.724L143.239 208.21L144.052 206.696L136.724 202.492L133.532 200.72L135.285 202.921L141.422 211.186L140.737 212.225L131.69 209.495L128.13 208.337L130.858 210.698L137.234 216.175L138.427 214.763L139.206 215.278L136.419 219.216L135.64 218.702L136.427 217.283L127.849 209.383Z" fill="black"/>
<path d="M139.557 191.538L140.801 189.936L153.756 194.426L154.581 193.628L155.335 194.237L152.263 198.1L151.509 197.49L152.366 196.192L149.687 195.168L146.297 199.455L147.904 201.821L149.021 200.694L149.775 201.303L147.02 204.741L146.266 204.132L146.857 203.068L139.557 191.538ZM142.573 192.447L141.008 191.825L142.059 193.226L145.551 198.44L148.477 194.742L142.573 192.447Z" fill="black"/>
<path d="M147.101 184.29L145.941 185.201L145.187 184.592L146.818 182.686C147.11 182.357 147.402 182.028 147.599 181.673C148.037 181.179 148.38 180.66 148.818 180.166C149.985 178.85 151.121 178.033 152.078 177.882C153.035 177.731 154.055 178.107 155.042 178.982C155.796 179.592 156.308 180.34 156.58 181.228C156.851 182.115 156.838 182.926 156.608 183.782C156.379 184.637 155.935 185.537 155.23 186.264C154.964 186.499 154.767 186.853 154.5 187.088C154.234 187.322 154.088 187.486 154.063 187.581L157.215 190.26L159.011 188.5L159.67 189.084L155.678 193.718L155.019 193.134L155.876 191.836L147.101 184.29ZM154.572 185.681C155.181 184.927 155.505 184.097 155.424 183.261C155.343 182.424 154.856 181.581 153.798 180.584C152.975 179.854 152.241 179.556 151.499 179.663C150.757 179.769 150.129 180.212 149.279 181.105C148.987 181.434 148.79 181.789 148.498 182.118C148.327 182.378 148.206 182.447 148.181 182.542L153.239 186.852C153.576 186.738 153.988 186.339 154.572 185.681Z" fill="black"/>
<path d="M164.938 182.347C163.835 182.662 162.738 182.572 161.598 182.267C160.483 181.866 159.419 181.275 158.362 180.279C157.4 179.308 156.653 178.293 156.268 177.07C155.857 175.941 155.878 174.724 156.088 173.559C156.394 172.418 156.89 171.329 157.835 170.462C158.539 169.734 159.339 169.031 160.569 168.24L161.076 167.867L163.374 170.316L162.524 171.209L160.421 169.932C160.206 169.976 159.87 170.09 159.508 170.299C159.147 170.507 158.734 170.906 158.322 171.305C157.763 171.868 157.465 172.603 157.381 173.294C157.273 174.08 157.475 174.847 157.841 175.76C158.233 176.578 158.91 177.472 159.803 178.323C160.6 179.147 161.569 179.713 162.469 180.157C163.368 180.602 164.249 180.736 165.086 180.655C165.922 180.573 166.645 180.156 167.324 179.523C167.762 179.029 168.079 178.605 168.251 178.345C168.422 178.086 168.524 177.706 168.505 177.395L167.677 175.543L168.597 174.771L170.255 176.947C170.109 177.112 169.912 177.466 169.664 178.011C169.442 178.461 169.245 178.815 169.048 179.17C168.851 179.525 168.534 179.949 168.096 180.443C167.03 181.38 165.946 182.006 164.938 182.347Z" fill="black"/>
<path d="M176.007 152.82L176.64 153.499L175.447 154.911L181.725 161.89L181.342 159.139L180.959 150.684L180.655 150.297L179.279 151.253L178.646 150.574L182.522 147.131L183.155 147.809L182.229 148.987L189.982 157.685L191.238 156.8L191.871 157.478L187.994 160.921L187.361 160.243L188.504 159.021L182.156 151.921L182.59 154.482L182.922 163.127L183.39 163.66L184.792 162.61L185.425 163.289L181.523 166.827L180.89 166.148L181.912 164.996L174.159 156.297L172.928 157.088L172.295 156.409L176.007 152.82Z" fill="black"/>
<path d="M185.688 144.821C186.005 144.397 186.323 143.973 186.614 143.644C186.906 143.314 187.173 143.08 187.439 142.846C188.626 141.84 189.78 141.334 190.737 141.183C191.694 141.032 192.498 141.451 193.201 142.251C193.808 143.025 194.105 143.817 193.971 144.698C193.837 145.579 193.538 146.314 192.929 147.067C193.823 146.39 194.736 146.024 195.617 146.158C196.523 146.197 197.233 146.591 197.84 147.365C198.682 148.405 198.997 149.508 198.812 150.579C198.627 151.65 197.821 152.758 196.394 153.903C195.861 154.372 195.258 154.719 194.776 154.998C194.294 155.276 193.838 155.459 193.502 155.573C193.166 155.687 192.95 155.731 192.925 155.826L191.109 153.098L191.883 152.491L193.814 154.027C194.461 153.895 195.279 153.503 196.078 152.8C196.732 152.262 197.1 151.648 197.063 151.027C197.051 150.311 196.823 149.638 196.121 148.839C195.678 148.211 195.064 147.843 194.373 147.76C193.682 147.676 192.89 147.973 191.995 148.65L190.955 149.492L190.253 148.693L191.052 147.99C191.439 147.686 191.756 147.262 191.979 146.812C192.201 146.363 192.328 145.888 192.266 145.361C192.203 144.835 191.925 144.353 191.551 143.846C191.013 143.193 190.494 142.85 189.873 142.887C189.252 142.924 188.675 143.177 188.047 143.62C187.634 144.019 187.342 144.348 187.05 144.677C186.759 145.006 186.777 145.317 186.821 145.532L187.631 147.073L186.711 147.846L184.742 145.688C184.983 145.549 185.275 145.22 185.688 144.821Z" fill="black"/>
<path d="M198.875 135.521L197.454 136.261L196.942 135.512L198.972 134.019C199.333 133.81 199.745 133.411 200.253 133.038C200.665 132.639 201.052 132.336 201.293 132.196C202.695 131.146 203.849 130.64 204.755 130.679C205.662 130.719 206.466 131.138 207.074 131.912C207.586 132.66 207.788 133.427 207.774 134.239C207.761 135.05 207.367 135.759 206.783 136.417C207.703 135.645 208.685 135.399 209.592 135.439C210.498 135.478 211.277 135.992 211.789 136.74C212.536 137.755 212.756 138.833 212.546 139.999C212.335 141.165 211.314 142.317 209.645 143.601C209.258 143.905 208.897 144.114 208.535 144.323C207.692 144.81 207.279 145.208 207.064 145.252L205.034 146.746L204.522 145.997L205.613 144.965L198.875 135.521ZM204.278 137.783L205.147 137.201C205.895 136.689 206.264 136.075 206.321 135.479C206.379 134.883 206.177 134.116 205.665 133.368C205.152 132.619 204.633 132.276 204.037 132.219C203.442 132.161 202.649 132.458 201.875 133.065C201.488 133.369 201.127 133.578 200.835 133.907L200.568 134.141L203.625 138.321C203.529 138.296 203.891 138.087 204.278 137.783ZM209.063 142.732C210.078 141.986 210.687 141.232 210.796 140.447C210.905 139.661 210.703 138.894 210.19 138.145C209.583 137.371 208.994 136.908 208.398 136.85C207.708 136.767 207.01 137.09 206.116 137.767C205.101 138.513 204.473 138.956 204.207 139.19L207.471 143.732C207.687 143.688 208.194 143.314 209.063 142.732Z" fill="black"/>
<path d="M211.436 125.136L213.174 123.972L224.109 132.198L225.168 131.667L225.68 132.416L221.577 135.187L221.064 134.438L222.25 133.432L219.99 131.604L215.404 134.653L216.193 137.411L217.614 136.671L218.126 137.42L214.409 139.887L213.897 139.138L214.722 138.341L211.436 125.136ZM214.102 126.971L212.759 125.898L213.328 127.578L215.063 133.645L219.021 131.039L214.102 126.971Z" fill="black"/>
<path d="M228.009 130.188C226.887 130.193 225.867 129.818 224.803 129.227C223.86 128.567 222.992 127.621 222.202 126.391C221.506 125.186 221.121 123.962 221.021 122.815C220.921 121.668 221.252 120.432 221.817 119.463C222.408 118.399 223.233 117.602 224.343 116.881C225.186 116.394 226.22 115.958 227.564 115.503L228.141 115.25L229.69 118.212L228.605 118.838L226.941 117.068C226.751 117.017 226.415 117.13 225.984 117.219C225.553 117.307 225.071 117.585 224.589 117.863C223.866 118.281 223.402 118.87 223.129 119.509C222.83 120.244 222.722 121.03 222.872 121.987C223.023 122.944 223.46 123.978 224.111 124.967C224.763 125.957 225.44 126.851 226.193 127.46C226.947 128.07 227.751 128.489 228.606 128.718C229.462 128.947 230.229 128.745 231.072 128.258C231.675 127.911 232.062 127.607 232.233 127.347C232.5 127.113 232.696 126.758 232.773 126.473L232.496 124.464L233.555 123.933L234.516 126.431C234.275 126.57 234.008 126.804 233.691 127.228C233.399 127.558 233.107 127.887 232.72 128.191C232.428 128.52 231.946 128.798 231.464 129.076C230.329 129.893 229.131 130.183 228.009 130.188Z" fill="black"/>
<path d="M237.758 112.429C237.848 111.332 238.128 110.287 238.668 109.413C239.208 108.539 239.887 107.906 240.851 107.35C241.935 106.724 243.013 106.503 244.014 106.568C245.015 106.632 246.035 107.007 246.858 107.737C247.681 108.467 248.453 109.387 249.175 110.497C249.94 111.822 250.299 113.141 250.374 114.383C250.449 115.625 250.264 116.696 249.698 117.665C249.133 118.634 248.429 119.362 247.465 119.919C246.38 120.545 245.303 120.765 244.206 120.675C243.205 120.611 242.185 120.236 241.337 119.601C240.488 118.966 239.621 118.021 239.02 116.841L236.395 118.277L238.988 123.046L240.478 122.426L240.87 123.244L236.342 125.698L235.95 124.88L237.206 123.994L231.698 113.759L230.233 114.283L229.746 113.439L234.154 111.055L234.641 111.899L233.385 112.785L235.769 117.192L238.489 115.782C237.958 114.723 237.738 113.645 237.758 112.429ZM239.522 111.17C239.381 112.456 239.784 113.99 240.828 115.798C241.732 117.364 242.644 118.525 243.803 119.141C244.962 119.757 245.963 119.822 247.142 119.221C248.201 118.69 248.767 117.721 248.787 116.504C248.808 115.287 248.404 113.753 247.455 111.971C246.551 110.405 245.64 109.244 244.576 108.653C243.512 108.063 242.415 107.973 241.356 108.504C240.297 109.035 239.663 109.883 239.522 111.17Z" fill="black"/>
<path d="M258.481 107.694C259.191 108.088 260.065 108.628 261.224 109.244C262.003 109.758 262.522 110.101 262.972 110.323C263.421 110.545 263.611 110.596 263.827 110.552L264.569 110.445L264.961 111.263L262.868 112.231C262.627 112.37 262.247 112.268 261.702 112.02C261.157 111.772 260.474 111.283 259.53 110.623C258.517 109.842 257.643 109.303 257.029 108.934C256.414 108.566 255.914 108.534 255.578 108.647L254.519 109.179L256.801 113.966L258.361 113.467L258.752 114.285L254.085 116.498L253.693 115.68L255.019 114.915L250.088 104.426L248.649 104.856L248.257 104.038L252.804 101.895L253.196 102.713L251.845 103.573L254.101 108.456L255.522 107.716L256.658 101.196L255.098 101.695L254.706 100.877L258.891 98.9422L259.283 99.7603L258.053 100.551L256.676 107.21C257.081 107.217 257.747 107.395 258.481 107.694Z" fill="black"/>
<path d="M267.688 109.448C266.617 109.263 265.743 108.723 264.946 107.898C264.148 107.073 263.401 106.059 262.852 104.689C262.302 103.319 262.012 102.121 262.127 100.93C262.243 99.7385 262.523 98.6932 263.183 97.7496C263.843 96.8061 264.738 96.1291 265.771 95.693C267.597 94.96 269.125 94.9619 270.569 95.6544C272.013 96.3469 273.159 97.7743 273.961 99.7209C274.511 101.09 274.775 102.384 274.66 103.575C274.544 104.766 274.239 105.907 273.579 106.85C272.918 107.794 272.024 108.471 270.99 108.907C269.811 109.508 268.759 109.633 267.688 109.448ZM264.088 99.3161C263.852 100.577 264.16 102.086 264.868 104.007C265.626 105.738 266.512 106.994 267.551 107.68C268.564 108.46 269.66 108.55 270.814 108.045C271.943 107.634 272.603 106.691 272.839 105.43C273.075 104.169 272.792 102.565 271.964 100.713C271.205 98.9824 270.319 97.7265 269.281 97.0408C268.242 96.3551 267.171 96.17 266.017 96.6756C264.958 97.2067 264.324 98.0552 264.088 99.3161Z" fill="black"/>
<path d="M275.046 93.3907L273.537 93.6994L273.266 92.8119L275.644 91.9211C276.075 91.8329 276.557 91.5546 277.134 91.3018C277.711 91.049 278.072 90.8403 278.383 90.8216C279.968 90.2278 281.236 90.0582 282.091 90.2874C282.946 90.5166 283.605 91.1004 283.946 92.1085C284.243 92.9011 284.324 93.7377 284.025 94.4725C283.727 95.2073 283.238 95.8912 282.515 96.3086C283.643 95.898 284.575 95.8421 285.43 96.0713C286.286 96.3005 286.919 96.9793 287.26 97.9874C287.67 99.116 287.65 100.333 287.085 101.302C286.494 102.366 285.238 103.252 283.317 103.959C282.86 104.142 282.524 104.256 282.093 104.344C281.206 104.616 280.629 104.868 280.413 104.913L278.035 105.803L277.738 105.011L279.159 104.271L275.046 93.3907ZM279.662 97.072L280.67 96.731C281.463 96.4341 281.995 95.9658 282.269 95.326C282.542 94.6862 282.53 93.9701 282.138 93.152C281.841 92.3595 281.373 91.8266 280.828 91.5787C280.284 91.3309 279.447 91.4123 278.439 91.7533C277.982 91.9366 277.621 92.1453 277.164 92.3285L276.803 92.5372L278.654 97.4131C278.774 97.3435 279.11 97.2298 279.662 97.072ZM282.83 103.116C283.958 102.705 284.732 102.098 285.126 101.388C285.52 100.679 285.508 99.9627 285.167 98.9546C284.801 98.0415 284.332 97.5086 283.787 97.2608C283.148 96.9875 282.311 97.0689 281.277 97.5049C280.054 97.8901 279.356 98.2125 279.02 98.3261L280.985 103.538C281.245 103.709 281.917 103.482 282.83 103.116Z" fill="black"/>
<path d="M302.57 83.0427L302.842 83.9303L301.421 84.6701L304.767 95.7523L306.491 95.3994L306.762 96.287L301.773 97.8021L301.501 96.9145L302.897 96.2697L299.481 85.0671L293.725 86.784L297.14 97.9867L298.864 97.6338L299.136 98.5214L294.146 100.036L293.875 99.1489L295.27 98.5041L291.924 87.422L290.32 87.7052L290.049 86.8176L302.57 83.0427Z" fill="black"/>
<path d="M310.371 94.6056C309.351 94.2304 308.502 93.5957 307.825 92.7013C307.148 91.8068 306.642 90.6528 306.308 89.2391C305.974 87.8254 305.9 86.5832 306.136 85.3223C306.346 84.1564 306.911 83.1874 307.641 82.3644C308.371 81.5414 309.335 80.9848 310.533 80.6947C312.403 80.1773 313.975 80.3946 315.342 81.3723C316.615 82.3244 317.545 83.7959 318.081 85.9767C318.415 87.3903 318.464 88.7276 318.254 89.8935C318.018 91.1544 317.453 92.1234 316.628 92.9209C315.803 93.7185 314.839 94.275 313.736 94.5906C312.417 94.9503 311.39 94.9807 310.371 94.6056ZM308.235 83.9495C307.809 85.1595 307.902 86.7123 308.394 88.6776C308.816 90.5223 309.582 91.8478 310.474 92.6981C311.367 93.5484 312.507 93.854 313.61 93.5384C314.809 93.2483 315.513 92.5203 315.964 91.2153C316.39 90.0054 316.323 88.3575 315.831 86.3922C315.408 84.5475 314.643 83.222 313.751 82.3717C312.858 81.5214 311.813 81.2413 310.614 81.5314C309.46 82.037 308.635 82.8346 308.235 83.9495Z" fill="black"/>
<path d="M324.297 86.7255C324.435 88.4938 324.294 89.7802 323.919 90.8001C323.791 91.2753 323.474 91.6995 323.207 91.9337C322.941 92.1679 322.579 92.3766 322.148 92.4648C321.597 92.6226 321.096 92.5903 320.881 92.6344L320.451 91.1952C320.762 91.1766 321.193 91.0884 321.84 90.9561C322.055 90.912 322.271 90.8678 322.417 90.7032C322.563 90.5386 322.709 90.374 322.785 90.0889C323.433 88.4293 323.221 85.4186 322.295 80.8925L321.961 79.4788L319.762 79.7043L319.585 78.8422L330.146 76.681L330.323 77.5432L328.643 78.1115L330.98 89.5347L332.869 89.3278L333.045 90.1899L327.442 91.3367L327.265 90.4746L329.161 89.8621L326.823 78.4389L323.159 79.1887L323.538 80.8179C323.858 83.0428 324.135 85.0522 324.297 86.7255Z" fill="black"/>
<path d="M333.91 77.0784L332.383 77.0766L332.232 76.1195L341.614 74.559L342.377 77.4118L341.325 77.5373L340.471 75.7808L335.927 76.3964L336.77 81.6133L339.882 81.0213L339.884 79.4939L340.936 79.3684L341.628 83.6281L340.576 83.7536L340.077 82.1939L336.99 82.6909L337.852 88.2183L343.024 87.1598L343.591 84.6635L344.757 84.874L344.798 88.1443L334.58 89.7862L334.403 88.924L335.937 88.5203L333.91 77.0784Z" fill="black"/>
<path d="M349.32 74.6887L346.138 75.1602L346 79.0957L344.732 79.2653L344.434 74.2962L356.008 72.9158L356.833 77.8221L355.685 77.9221L354.581 74.0612L351.355 74.3172L352.805 86.0118L355.479 85.9136L355.535 86.8453L348.48 87.7051L348.425 86.7734L350.795 86.2883L349.32 74.6887Z" fill="black"/>
<path d="M364.6 80.0051L363.668 80.061C363.402 80.2952 363.084 80.7194 362.837 81.2642C362.563 81.904 362.265 82.6388 362.01 83.5891C361.66 84.514 361.482 85.1792 361.26 85.6289C361.037 86.0786 360.866 86.3382 360.65 86.3824L358.14 86.6265L358.084 85.6948L358.757 85.4675C358.972 85.4234 359.118 85.2588 359.315 84.9041C359.512 84.5494 359.76 84.0047 360.058 83.2699C360.383 82.44 360.776 81.7307 361.024 81.186C361.367 80.6667 361.684 80.2425 362.046 80.0337C361.165 79.8996 360.456 79.5058 359.918 78.8524C359.38 78.199 359.083 77.4064 359.027 76.4747C358.908 75.0169 359.309 73.902 360.083 73.2945C360.977 72.6175 362.201 72.2323 363.849 72.1646C364.159 72.1459 364.685 72.0832 365.281 72.1409C365.902 72.1037 366.308 72.1105 366.618 72.0918L369.319 71.8986L369.374 72.8303L367.866 73.139L368.771 84.5859L370.488 84.6386L370.544 85.5703L365.024 86.0263L364.968 85.0947L366.787 84.7673L366.394 79.7728L364.6 80.0051ZM365.363 72.9776C364.767 72.9199 364.336 73.0081 363.835 72.9758C362.903 73.0317 362.111 73.3286 361.699 73.7274C361.166 74.1957 360.962 74.956 361.087 76.0082C361.118 77.0349 361.535 77.7579 362.004 78.2908C362.592 78.7542 363.353 78.9579 364.284 78.902C365.311 78.8715 365.958 78.7392 366.268 78.7206L365.863 73.0099L365.363 72.9776Z" fill="black"/>
<path d="M376.086 72.4897L372.86 72.7457L372.317 76.6744L371.075 76.7489L371.207 71.6917L382.837 71.2429L383.231 76.2374L382.109 76.2424L381.315 72.3629L378.045 72.4033L378.443 84.2234L381.066 84.3153L381.122 85.247L374.03 85.4857L373.974 84.554L376.389 84.2844L376.086 72.4897Z" fill="black"/>
<path d="M391.922 84.4742C390.979 83.814 390.276 83.0146 389.745 81.9556C389.214 80.8966 389.045 79.6288 389.021 78.1965C389.092 76.7896 389.423 75.5542 390.014 74.4902C390.605 73.4262 391.43 72.6286 392.489 72.0975C393.548 71.5664 394.651 71.2509 395.963 71.2968C396.869 71.3359 398.06 71.4514 399.391 71.8079L399.961 71.9607L399.665 75.3447L398.448 75.3242L398.058 72.9788C397.894 72.8328 397.634 72.6614 397.159 72.5341C396.684 72.4068 396.183 72.3745 395.587 72.3167C394.776 72.3031 394.104 72.5304 393.476 72.9733C392.848 73.4162 392.359 74.1001 391.94 74.9044C391.59 75.8293 391.336 76.7797 391.29 78.0915C391.269 79.3083 391.395 80.3605 391.666 81.248C391.938 82.1356 392.425 82.9791 393.083 83.563C393.742 84.1468 394.476 84.4456 395.383 84.4847C396.099 84.4729 396.504 84.4797 396.935 84.3915C397.272 84.2778 397.608 84.1641 397.874 83.93L398.668 82.1057L399.834 82.3162L399.337 84.933C399.026 84.9517 398.69 85.0654 398.164 85.1281C397.733 85.2163 397.277 85.3996 396.871 85.3927C396.44 85.481 395.939 85.4487 395.318 85.486C394.006 85.44 392.866 85.1345 391.922 84.4742Z" fill="black"/>
<path d="M407.528 71.8492L407.489 72.7555L405.625 72.8673L404.942 82.2588L406.65 80.0681L412.482 73.8895L412.514 73.3889L410.873 73.051L410.912 72.1448L416.013 72.4931L415.974 73.3994L414.516 73.518L413.748 85.1276L415.294 85.44L415.255 86.3462L410.059 85.9725L410.098 85.0662L411.746 84.9985L412.359 75.4865L410.798 77.5126L404.846 83.7607L404.762 84.4514L406.524 84.7197L406.485 85.6259L401.193 85.2267L401.232 84.3204L402.785 84.2272L403.553 72.6177L402.102 72.3307L402.142 71.4245L407.528 71.8492Z" fill="black"/>
<path d="M427.806 73.7177L427.414 78.6036L426.127 78.4626L426.024 74.6662L421.905 74.0719L420.586 85.8393L423.798 86.3945L423.664 87.2752L416.352 86.4363L416.486 85.5555L418.514 85.5896L419.757 74.1074L417.856 73.5981L417.99 72.7173L427.806 73.7177Z" fill="black"/>
<path d="M430.954 75.2743L429.554 74.7973L429.688 73.9165L434.688 74.645L434.553 75.5258L432.931 75.4985L432.203 80.498L438.653 81.5134L439.381 76.5139L437.886 76.0114L438.021 75.1307L443.02 75.8591L442.886 76.7399L441.359 76.7381L439.615 88.188L441.04 88.57L440.906 89.4508L435.907 88.7223L436.041 87.8415L437.568 87.8434L438.398 82.4637L431.948 81.4483L431.118 86.828L432.733 87.2608L432.599 88.1416L427.504 87.3877L427.639 86.5069L429.166 86.5087L430.954 75.2743Z" fill="black"/>
<path d="M449.774 77.2615L451.795 77.7012L453.668 91.2406L454.783 91.6412L454.649 92.5219L449.821 91.5338L449.955 90.6531L451.552 90.7754L451.219 87.8343L445.916 86.7189L444.512 89.2966L446.007 89.7991L445.873 90.6799L441.52 89.8191L441.654 88.9383L442.871 88.9588L449.774 77.2615ZM450.366 80.374L450.203 78.7006L449.485 80.2398L446.481 85.7499L451.119 86.6871L450.366 80.374Z" fill="black"/>
<path d="M460.465 88.6821C459.842 90.2468 459.105 91.4754 458.401 92.2034C457.988 92.6021 457.627 92.8108 457.291 92.9245C456.955 93.0382 456.549 93.0314 456.074 92.904C455.504 92.7513 455.029 92.6239 454.769 92.4525L454.961 90.9761C455.246 91.0525 455.721 91.1798 456.292 91.3326C456.482 91.3835 456.697 91.3394 456.913 91.2953C457.128 91.2512 457.274 91.0866 457.541 90.8524C458.778 89.6561 460.042 86.8374 461.144 82.3453L461.526 80.9198L459.53 80.3851L459.785 79.4347L470.29 82.0457L470.035 82.9961L468.248 82.8228L465.433 94.0877L467.188 94.7616L466.959 95.6169L461.327 94.2095L461.556 93.3542L463.507 93.6735L466.322 82.4086L462.59 81.5105L462.157 83.1261C461.718 85.1472 461.088 87.1175 460.465 88.6821Z" fill="black"/>
<path d="M476.536 89.5252C477.936 90.0022 478.975 90.6879 479.557 91.5569C480.139 92.4258 480.239 93.5731 479.813 94.783C479.336 96.1831 478.58 97.1011 477.547 97.5372C476.393 98.0428 475.176 98.0223 473.75 97.6404C473.56 97.5894 473.37 97.5385 473.18 97.4876C472.99 97.4367 472.8 97.3857 472.541 97.2143C471.901 96.941 471.235 96.7628 470.691 96.515L468.245 95.7578L468.474 94.9025L470.021 95.2149L473.405 84.1028L472.056 83.4358L472.285 82.5804L477.366 84.1456L477.137 85.0009L475.281 84.7071L473.97 88.8377L476.536 89.5252ZM472.7 96.2385C472.89 96.2894 473.245 96.4863 473.625 96.5882C474.67 96.8683 475.482 96.8819 476.205 96.4645C476.927 96.0471 477.416 95.3632 477.696 94.3178C477.977 93.2725 477.965 92.5563 477.547 91.8333C477.199 91.2308 476.516 90.742 475.496 90.3669L473.69 89.8831L471.87 95.9143C472.25 96.0161 472.51 96.1876 472.7 96.2385ZM489.334 87.7597L489.105 88.615L487.343 88.3467L483.958 99.4588L485.592 100.202L485.363 101.058L480.092 99.4415L480.321 98.5862L482.058 98.9495L485.442 87.8374L483.808 87.0939L484.037 86.2386L489.334 87.7597Z" fill="black"/>
<path d="M497.023 91.7553L495.699 90.9932L496.023 90.1634L500.743 91.9372L500.419 92.7671L498.873 92.4547L497.099 97.1741L503.288 99.5454L505.062 94.826L503.738 94.0639L504.062 93.2341L508.782 95.0079L508.457 95.8377L507.006 95.5508L502.861 106.459L504.21 107.126L503.886 107.956L499.167 106.182L499.491 105.352L501.012 105.76L502.982 100.686L496.793 98.3145L494.823 103.389L496.241 104.176L495.917 105.006L491.128 103.112L491.452 102.282L492.973 102.689L497.023 91.7553Z" fill="black"/>
<path d="M515.015 97.5946L516.934 98.4144L515.916 112.096L516.86 112.756L516.536 113.586L511.988 111.553L512.312 110.723L513.807 111.225L514.191 108.272L509.168 106.112L507.27 108.252L508.689 109.039L508.365 109.869L504.266 108.058L504.59 107.228L505.731 107.534L515.015 97.5946ZM514.96 100.839L515.203 99.1729L514.13 100.515L510.018 105.219L514.401 107.107L514.96 100.839Z" fill="black"/>
<path d="M528.726 105.343L527.004 104.168L527.423 103.364L531.8 105.657L530.294 114.319L529.752 116.72L531.358 114.91L537.525 108.617L541.902 110.911L541.483 111.715L539.538 110.99L535.488 121.924L536.855 122.902L536.436 123.706L531.705 121.216L532.124 120.412L533.689 121.035L536.804 113.211L538.126 109.797L536.159 111.816L528.925 119.045L527.861 118.454L529.356 109.077L530.013 105.484L528.076 108.53L523.517 115.661L525.075 116.689L524.656 117.494L520.374 115.226L520.793 114.422L522.263 115.019L528.726 105.343Z" fill="black"/>
<path d="M548.096 114.404L549.844 115.483L547.255 128.947L548.198 129.608L547.779 130.412L543.548 127.954L543.967 127.15L545.437 127.747L546.081 124.966L541.426 122.191L539.269 124.159L540.541 125.112L540.122 125.916L536.341 123.681L536.76 122.876L537.875 123.277L548.096 114.404ZM547.661 117.547L548.094 115.931L546.857 117.127L542.156 121.368L546.291 123.8L547.661 117.547Z" fill="black"/>
<path d="M556.365 120.795L555.308 119.799L555.822 119.02L557.899 120.392C558.254 120.588 558.678 120.906 559.033 121.103C559.647 121.471 560.192 121.719 560.711 122.062C562.174 123.065 563.136 124.036 563.382 125.018C563.628 126.001 563.443 127.072 562.757 128.11C562.218 128.984 561.564 129.522 560.746 129.914C559.928 130.306 559.091 130.387 558.211 130.253C557.33 130.119 556.405 129.769 555.531 129.23C555.176 129.033 554.917 128.861 554.588 128.569C554.233 128.373 554.068 128.227 553.999 128.106L551.745 131.576L553.771 133.138L553.257 133.917L548.134 130.609L548.648 129.83L550.092 130.522L556.365 120.795ZM556.045 128.451C556.919 128.991 557.68 129.194 558.542 129.018C559.404 128.841 560.178 128.234 560.914 127.005C561.454 126.131 561.683 125.276 561.456 124.604C561.229 123.932 560.691 123.279 559.747 122.618C559.393 122.421 559.038 122.225 558.588 122.002C558.329 121.831 558.138 121.78 558.138 121.78L554.513 127.327C554.842 127.619 555.267 127.937 556.045 128.451Z" fill="black"/>
<path d="M560.774 138.172C560.338 137.138 560.238 135.991 560.423 134.92C560.608 133.85 561.155 132.57 561.987 131.367C562.793 130.259 563.738 129.392 564.797 128.861C565.856 128.329 567.029 128.134 568.22 128.25C569.412 128.365 570.527 128.766 571.54 129.547C572.319 130.061 573.211 130.911 574.078 131.857L574.572 132.295L572.452 134.884L571.414 134.198L572.405 132.019C572.361 131.804 572.127 131.538 571.918 131.176C571.709 130.815 571.19 130.472 570.671 130.129C569.987 129.64 569.322 129.462 568.51 129.448C567.699 129.434 566.907 129.731 566.158 130.244C565.41 130.756 564.585 131.554 563.925 132.497C563.264 133.441 562.794 134.435 562.445 135.36C562.19 136.31 562.056 137.191 562.327 138.079C562.599 138.966 563.042 139.594 563.82 140.109C564.34 140.452 564.764 140.769 565.144 140.871C565.524 140.973 565.809 141.049 566.12 141.03L567.832 139.961L568.725 140.812L566.783 142.736C566.524 142.565 566.144 142.463 565.694 142.24C565.219 142.113 564.864 141.916 564.389 141.789C564.034 141.592 563.584 141.37 563.065 141.027C562.078 140.151 561.21 139.206 560.774 138.172Z" fill="black"/>
<path d="M588.034 142.115L587.425 142.868L585.867 141.84L579.945 149.115L582.608 148.3L590.893 146.65L591.211 146.226L590.109 145.014L590.719 144.26L594.72 147.573L594.111 148.327L592.787 147.565L585.38 156.581L586.507 157.697L585.923 158.356L581.922 155.043L582.506 154.384L583.899 155.267L589.941 147.923L587.494 148.693L578.993 150.387L578.555 150.881L579.751 152.119L579.168 152.777L575.071 149.438L575.655 148.78L576.953 149.637L584.36 140.621L583.328 139.53L583.938 138.777L588.034 142.115Z" fill="black"/>
<path d="M597.512 150.46C598.056 150.708 598.385 151 598.74 151.197C599.095 151.394 599.424 151.686 599.684 151.857C600.836 152.879 601.582 153.894 601.828 154.876C602.074 155.859 601.845 156.714 601.141 157.442C600.437 158.17 599.714 158.588 598.807 158.549C597.971 158.63 597.115 158.401 596.336 157.886C597.134 158.711 597.621 159.555 597.702 160.391C597.784 161.228 597.46 162.058 596.876 162.716C596 163.704 594.941 164.235 593.845 164.145C592.723 164.15 591.564 163.534 590.152 162.341C589.563 161.877 589.19 161.37 588.816 160.862C588.443 160.355 588.234 159.994 588 159.727C587.861 159.486 587.722 159.245 587.652 159.125L590.076 156.922L590.734 157.506L589.553 159.634C589.78 160.306 590.318 160.959 591.046 161.664C591.705 162.248 592.25 162.495 592.991 162.388C593.638 162.256 594.335 161.934 594.945 161.18C595.503 160.617 595.681 159.952 595.764 159.261C595.848 158.57 595.335 157.822 594.512 157.092L593.525 156.216L594.229 155.488L595.052 156.218C595.476 156.536 595.9 156.853 596.376 156.98C596.851 157.108 597.351 157.14 597.903 156.982C598.455 156.824 598.841 156.521 599.279 156.027C599.863 155.368 600.111 154.824 599.979 154.177C599.941 153.556 599.568 153.048 598.91 152.465C598.511 152.052 598.156 151.855 597.707 151.633C597.352 151.436 597.041 151.455 596.826 151.499L595.424 152.549L594.506 151.794L596.334 149.533C596.638 149.92 596.992 150.117 597.512 150.46Z" fill="black"/>
<path d="M608.652 162.103L607.766 160.847L608.445 160.214L610.204 162.01C610.534 162.302 610.932 162.714 611.426 163.152C611.92 163.59 612.249 163.882 612.414 164.028C613.61 165.265 614.357 166.28 614.413 167.212C614.589 168.074 614.265 168.904 613.561 169.632C612.882 170.265 612.184 170.587 611.443 170.694C610.701 170.801 609.846 170.571 609.067 170.057C609.959 170.907 610.446 171.751 610.502 172.683C610.558 173.614 610.259 174.349 609.555 175.077C608.705 175.97 607.576 176.38 606.48 176.29C605.289 176.175 603.965 175.413 602.509 174.004C602.18 173.712 601.876 173.325 601.642 173.059C601.009 172.38 600.61 171.967 600.446 171.821L598.686 170.026L599.365 169.393L600.637 170.345L608.652 162.103ZM603.118 173.251C604.011 174.101 604.79 174.615 605.601 174.629C606.412 174.642 607.11 174.32 607.789 173.687C608.467 173.054 608.766 172.319 608.729 171.698C608.692 171.077 608.274 170.354 607.477 169.529C606.584 168.679 606.021 168.121 605.786 167.854L601.878 171.798C601.922 172.013 602.416 172.451 603.118 173.251ZM607.339 167.761L608.067 168.465C608.726 169.049 609.34 169.417 609.961 169.38C610.582 169.343 611.28 169.02 611.864 168.362C612.448 167.704 612.79 167.184 612.753 166.563C612.716 165.942 612.298 165.219 611.57 164.515C611.241 164.223 610.912 163.931 610.488 163.614L610.159 163.322L606.516 167.031C606.706 167.082 606.941 167.348 607.339 167.761Z" fill="black"/>
<path d="M620.953 172.835L622.383 174.338L616 186.378L616.651 187.368L615.972 188.001L612.668 184.365L613.347 183.732L614.499 184.754L615.998 182.202L612.296 178.154L609.626 179.374L610.607 180.655L609.928 181.288L606.928 178.04L607.607 177.407L608.525 178.162L620.953 172.835ZM619.473 175.697L620.381 174.209L618.84 175.018L613.139 177.667L616.373 181.182L619.473 175.697Z" fill="black"/>
<path d="M618.397 189.975C618.202 188.802 618.387 187.731 618.883 186.642C619.379 185.552 620.159 184.539 621.32 183.628C622.386 182.691 623.54 182.186 624.738 181.896C625.936 181.606 627.128 181.721 628.243 182.122C629.358 182.522 630.301 183.183 631.143 184.223C631.75 184.997 632.402 185.986 633.003 187.166L633.255 187.743L630.572 189.774L629.8 188.854L631.336 186.923C631.292 186.707 631.273 186.397 631.065 186.035C630.856 185.674 630.578 185.192 630.179 184.779C629.641 184.126 629.027 183.758 628.266 183.554C627.506 183.35 626.669 183.432 625.782 183.703C624.894 183.975 623.93 184.531 623.01 185.303C622.09 186.075 621.361 186.898 620.846 187.677C620.307 188.551 620.077 189.407 620.064 190.218C620.05 191.029 620.347 191.821 620.955 192.595C621.423 193.128 621.752 193.42 622.107 193.617C622.462 193.814 622.721 193.985 623.032 193.967L624.927 193.354L625.579 194.344L623.264 195.761C623.099 195.615 622.77 195.323 622.346 195.005C621.896 194.783 621.567 194.491 621.238 194.199C620.909 193.907 620.484 193.59 620.111 193.082C619.123 192.207 618.592 191.148 618.397 189.975Z" fill="black"/>
<path d="M637.421 196.905C638.568 196.805 639.544 196.965 640.469 197.315C641.394 197.664 642.217 198.394 642.824 199.168C643.571 200.183 643.937 201.096 644.063 202.148C644.093 203.175 643.934 204.151 643.368 205.12C642.803 206.089 642.048 207.007 640.912 207.823C639.752 208.734 638.477 209.309 637.279 209.6C636.081 209.89 634.984 209.8 633.869 209.399C632.754 208.998 632.001 208.389 631.324 207.495C630.577 206.48 630.141 205.446 630.016 204.394C629.89 203.342 630.145 202.391 630.615 201.397C631.18 200.428 631.936 199.51 632.976 198.668L631.179 196.252L626.827 199.567L627.662 201.013L626.914 201.526L623.832 197.441L624.581 196.928L625.707 198.045L634.918 191.04L634.153 189.715L634.927 189.107L637.939 193.072L637.165 193.679L636.038 192.563L632.073 195.575L633.87 197.991C635.24 197.442 636.343 197.126 637.421 196.905ZM639.041 198.46C637.799 198.535 636.309 199.154 634.641 200.439C633.213 201.584 632.217 202.641 631.791 203.851C631.365 205.061 631.49 206.113 632.237 207.128C633.009 208.048 633.909 208.493 635.176 208.323C636.419 208.249 637.839 207.509 639.482 206.319C640.909 205.174 641.906 204.117 642.332 202.907C642.758 201.697 642.632 200.645 641.955 199.75C641.278 198.856 640.284 198.386 639.041 198.46Z" fill="black"/>
<path d="M645.37 216.657C645.166 217.417 644.696 218.412 644.175 219.596C643.756 220.401 643.577 221.066 643.38 221.42C643.279 221.801 643.177 222.181 643.246 222.301L643.474 222.973L642.725 223.486L641.397 221.602C641.257 221.361 641.264 220.955 641.512 220.411C641.76 219.866 642.084 219.036 642.554 218.041C643.17 216.882 643.52 215.958 643.793 215.318C644.067 214.678 644.004 214.152 643.89 213.816L643.239 212.826L638.868 215.832L639.583 217.347L638.834 217.86L635.994 213.635L636.742 213.123L637.749 214.309L647.332 207.812L646.688 206.417L647.436 205.904L650.207 210.008L649.459 210.521L648.452 209.334L643.987 212.314L644.847 213.665L651.432 213.8L650.692 212.379L651.441 211.867L653.977 215.704L653.229 216.216L652.197 215.125L645.448 214.844C645.631 215.301 645.574 215.897 645.37 216.657Z" fill="black"/>
<path d="M644.997 226.03C645.062 225.028 645.342 223.983 646.097 223.065C646.758 222.121 647.703 221.254 648.908 220.559C650.138 219.768 651.362 219.383 652.509 219.283C653.751 219.208 654.822 219.393 655.817 219.863C656.811 220.334 657.634 221.063 658.26 222.148C659.234 223.835 659.543 225.344 659.015 226.934C658.513 228.429 657.345 229.746 655.512 230.884C654.282 231.675 653.058 232.06 651.79 232.23C650.548 232.304 649.477 232.119 648.388 231.623C647.393 231.153 646.596 230.328 645.944 229.339C645.248 228.134 645.028 227.056 644.997 226.03ZM654.535 220.844C653.319 220.824 651.759 221.323 650.047 222.392C648.455 223.391 647.363 224.423 646.842 225.607C646.226 226.766 646.352 227.818 646.978 228.903C647.629 229.892 648.598 230.458 649.815 230.478C651.127 230.524 652.591 230 654.304 228.931C655.896 227.931 656.987 226.9 657.508 225.715C658.004 224.626 657.999 223.504 657.373 222.419C656.721 221.43 655.847 220.89 654.535 220.844Z" fill="black"/>
<path d="M662.027 230.898L661.503 229.434L662.346 228.947L663.599 231.116C663.807 231.477 664.086 231.959 664.459 232.467C664.832 232.974 665.041 233.336 665.18 233.577C665.989 235.118 666.4 236.246 666.24 237.222C666.081 238.198 665.617 238.787 664.748 239.369C664.025 239.786 663.163 239.962 662.378 239.854C661.592 239.745 660.883 239.351 660.275 238.577C660.901 239.662 661.078 240.524 660.918 241.5C660.784 242.381 660.2 243.039 659.356 243.526C658.272 244.152 657.125 244.252 656.01 243.852C654.895 243.451 653.863 242.36 652.82 240.552C652.611 240.191 652.428 239.734 652.219 239.373C651.732 238.529 651.479 237.952 651.41 237.832L650.157 235.663L650.975 235.271L651.861 236.527L662.027 230.898ZM653.568 240.04C654.194 241.124 654.827 241.803 655.587 242.007C656.348 242.21 657.089 242.104 657.933 241.617C658.776 241.13 659.24 240.541 659.392 239.971C659.545 239.4 659.369 238.538 658.812 237.574C658.186 236.49 657.769 235.767 657.63 235.526L652.74 238.188C652.828 238.619 653.081 239.196 653.568 240.04ZM659.15 235.933L659.612 236.872C660.029 237.595 660.618 238.058 661.188 238.211C661.853 238.389 662.5 238.257 663.343 237.77C664.066 237.352 664.504 236.859 664.657 236.288C664.81 235.718 664.608 234.951 664.051 233.987C663.843 233.626 663.539 233.239 663.356 232.782L663.147 232.421L658.594 234.969C658.733 235.21 658.872 235.451 659.15 235.933Z" fill="black"/>
<path d="M676.586 256.393L675.768 256.785L674.907 255.434L664.489 260.485L665.057 262.165L664.239 262.557L661.957 257.77L662.775 257.378L663.635 258.729L674.149 253.703L671.519 248.313L660.98 253.433L661.548 255.114L660.73 255.506L658.423 250.813L659.241 250.421L660.031 251.651L670.45 246.6L669.951 245.041L670.769 244.649L676.586 256.393Z" fill="black"/>
<path d="M666.282 265.957C666.467 264.886 667.007 264.012 667.737 263.189C668.561 262.391 669.576 261.645 670.851 261.07C672.125 260.494 673.419 260.23 674.61 260.345C675.801 260.461 676.847 260.741 677.79 261.401C678.734 262.061 679.411 262.956 679.847 263.989C680.58 265.816 680.673 267.368 679.886 268.787C679.193 270.231 677.766 271.377 675.819 272.179C674.449 272.729 673.156 272.993 671.965 272.878C670.774 272.762 669.633 272.457 668.69 271.797C667.746 271.136 667.069 270.242 666.538 269.183C666.222 268.08 666.027 266.907 666.282 265.957ZM676.439 262.261C675.178 262.025 673.67 262.334 671.723 263.137C669.992 263.895 668.736 264.781 668.05 265.82C667.365 266.858 667.18 267.929 667.685 269.083C668.191 270.237 669.039 270.872 670.3 271.108C671.561 271.344 673.165 271.061 675.016 270.233C676.748 269.474 678.003 268.588 678.689 267.55C679.375 266.511 679.465 265.415 679.054 264.286C678.549 263.132 677.7 262.497 676.439 262.261Z" fill="black"/>
<path d="M676.192 278.391C674.468 278.743 673.105 278.888 672.129 278.728C671.654 278.601 671.179 278.473 670.944 278.207C670.615 277.915 670.381 277.648 670.198 277.192C669.945 276.615 669.857 276.184 669.838 275.873L671.233 275.228C671.252 275.539 671.435 275.996 671.688 276.573C671.732 276.788 671.897 276.934 672.061 277.08C672.226 277.226 672.416 277.277 672.701 277.353C674.437 277.717 677.455 277.099 681.658 275.475L683.028 274.926L682.466 272.84L683.379 272.473L687.195 282.561L686.282 282.928L685.473 281.387L674.592 285.499L675.04 287.249L674.153 287.521L672.144 282.093L673.032 281.822L673.885 283.578L684.765 279.466L683.464 275.959L681.879 276.553C679.786 277.52 677.916 278.038 676.192 278.391Z" fill="black"/>
<path d="M687.273 286.452L686.964 284.944L687.852 284.672L690.826 293.719L688.182 294.844L687.841 293.836L689.363 292.716L688.006 288.278L682.991 289.888L684.04 292.818L685.618 292.629L685.959 293.638L681.832 294.976L681.49 293.968L682.911 293.228L681.983 290.229L676.727 291.979L678.553 296.95L681.151 297.136L681.156 298.258L677.879 298.704L674.608 288.864L675.495 288.593L676.14 289.988L687.273 286.452Z" fill="black"/>
<path d="M692.059 301.282L691.036 298.258L687.043 298.716L686.753 297.517L691.615 296.478L694.815 307.724L690.015 309.29L689.7 308.187L693.308 306.506L692.526 303.342L681.184 306.516L681.713 309.103L680.825 309.374L678.888 302.54L679.776 302.269L680.597 304.526L692.059 301.282Z" fill="black"/>
<path d="M689.118 317.198L688.942 316.336C688.708 316.07 688.233 315.942 687.567 315.764C686.902 315.586 686.116 315.477 685.141 315.318C684.165 315.158 683.5 314.98 683.024 314.852C682.549 314.725 682.29 314.554 682.246 314.338L681.691 311.847L682.553 311.67L682.875 312.368C682.945 312.488 683.205 312.66 683.559 312.857C683.939 312.959 684.51 313.111 685.244 313.41C686.1 313.639 686.86 313.843 687.525 314.021C688.07 314.269 688.52 314.491 688.849 314.783C688.888 313.877 689.187 313.142 689.65 312.553C690.234 311.895 690.957 311.478 691.819 311.301C693.233 310.967 694.399 311.178 695.127 311.882C695.855 312.586 696.455 313.766 696.833 315.395C696.947 315.731 697.01 316.257 697.073 316.783C697.11 317.404 697.198 317.835 697.312 318.171L697.936 320.783L697.049 321.055L696.429 319.565L685.12 322.238L685.378 323.937L684.541 324.018L683.223 318.674L684.085 318.498L684.653 320.178L689.446 319.018L689.118 317.198ZM696.116 316.934C696.053 316.408 695.99 315.882 695.902 315.451C695.656 314.468 695.308 313.866 694.814 313.428C694.32 312.99 693.509 312.976 692.527 313.222C691.544 313.468 690.821 313.886 690.453 314.5C690.084 315.114 689.976 315.9 690.222 316.883C690.468 317.865 690.6 318.512 690.739 318.753L696.299 317.391L696.116 316.934Z" fill="black"/>
<path d="M698.302 327.4L697.615 324.262L693.603 324.41L693.408 323.237L698.359 322.628L700.601 334.026L695.713 335.161L695.518 333.988L699.24 332.643L698.769 329.461L687.181 331.652L687.495 334.283L686.633 334.459L685.247 327.467L686.109 327.291L686.809 329.617L698.302 327.4Z" fill="black"/>
<path d="M688.94 344.855C689.41 343.861 690.165 342.943 691.129 342.386C692.118 341.735 693.342 341.35 694.73 341.11C696.093 340.966 697.405 341.012 698.494 341.508C699.609 341.909 700.527 342.664 701.299 343.584C702.071 344.504 702.482 345.632 702.652 346.9C702.803 347.857 702.808 348.979 702.641 350.36L702.583 350.956L699.262 351.186L699.093 349.919L701.35 349.097C701.496 348.933 701.598 348.553 701.604 348.147C701.611 347.742 701.669 347.146 701.511 346.594C701.404 345.853 701.082 345.155 700.519 344.597C699.955 344.038 699.246 343.645 698.296 343.39C697.345 343.135 696.319 343.166 695.076 343.24C693.904 343.435 692.921 343.681 691.982 344.143C691.044 344.604 690.391 345.142 689.902 345.826C689.413 346.51 689.279 347.391 689.36 348.228C689.492 348.874 689.555 349.4 689.764 349.762C689.878 350.098 690.112 350.364 690.346 350.631L692.247 351.14L692.226 352.357L689.507 352.239C689.463 352.024 689.375 351.593 689.097 351.111C688.914 350.654 688.705 350.293 688.617 349.862C688.528 349.431 688.345 348.974 688.308 348.353C688.328 347.136 688.444 345.945 688.94 344.855Z" fill="black"/>
<path d="M703.842 358.423L702.91 358.479L702.488 356.634L693.095 357.479L695.482 358.832L702.562 363.581L703.088 363.518L703.141 361.8L704.073 361.744L704.536 366.859L703.604 366.915L703.27 365.502L691.677 366.572L691.65 368.194L690.718 368.25L690.281 363.04L691.212 362.984L691.59 364.613L701.079 363.794L698.761 362.562L691.611 357.692L690.99 357.73L690.938 359.447L690.006 359.503L689.568 354.293L690.5 354.237L690.809 355.746L702.402 354.676L702.499 353.174L703.43 353.118L703.842 358.423Z" fill="black"/>
<path d="M705.123 378.73L700.249 379.054L700.175 377.812L703.934 377.087L703.907 373.006L692.156 373.524L692.102 376.769L691.17 376.825L690.792 369.492L691.724 369.436L692 371.445L703.561 370.876L703.69 368.874L704.622 368.818L705.123 378.73Z" fill="black"/>
<path d="M704.042 382.006L704.234 380.529L705.14 380.568L705.102 385.651L704.196 385.612L704.008 384.034L699.02 384.021L698.981 390.632L703.968 390.644L704.16 389.167L705.066 389.206L705.054 394.194L704.148 394.155L703.934 392.672L692.311 392.715L692.119 394.191L691.213 394.152L691.225 389.165L692.131 389.204L692.32 390.782L697.713 390.801L697.752 384.191L692.359 384.172L692.142 385.743L691.236 385.704L691.178 380.596L692.085 380.635L692.298 382.118L704.042 382.006Z" fill="black"/>
<path d="M705.084 400.925L705.05 402.953L691.977 406.885L691.767 408.051L690.86 408.012L691.063 403.075L691.969 403.115L692.062 404.667L694.915 403.904L695.15 398.466L692.47 397.443L692.253 399.014L691.346 398.975L691.517 394.539L692.423 394.578L692.523 395.725L705.084 400.925ZM702.034 402.043L703.664 401.665L701.978 401.111L696.049 398.911L695.803 403.632L702.034 402.043Z" fill="black"/>
<path d="M695.449 413.316C693.738 412.857 692.528 412.431 691.68 411.797C691.255 411.479 690.926 411.187 690.812 410.851C690.604 410.49 690.611 410.084 690.617 409.679C690.675 409.083 690.682 408.677 690.853 408.418L692.381 408.419C692.304 408.705 692.272 409.205 692.214 409.801C692.163 409.991 692.208 410.206 692.347 410.447C692.391 410.663 692.555 410.809 692.815 410.98C694.157 412.053 697.224 412.773 701.704 413.158L703.206 413.255L703.576 411.114L704.482 411.153L703.538 421.9L702.632 421.861L702.589 420.118L691.056 419.065L690.667 420.896L689.761 420.857L690.288 415.09L691.194 415.13L691.185 417.063L702.718 418.116L703.021 414.326L701.329 414.178C699.041 413.973 697.09 413.654 695.449 413.316Z" fill="black"/>
<path d="M697.09 429.238C696.898 430.714 696.377 431.899 695.483 432.576C694.683 433.278 693.606 433.499 692.319 433.358C690.938 433.191 689.899 432.506 689.248 431.516C688.596 430.527 688.427 429.259 688.619 427.783C688.669 427.593 688.72 427.403 688.676 427.187C688.632 426.972 688.778 426.807 688.855 426.522C689.033 425.857 689.116 425.166 689.269 424.596L689.646 422.048L690.527 422.183L690.499 423.805L702.07 425.479L702.572 423.984L703.453 424.118L702.648 429.403L701.767 429.269L701.655 427.405L697.347 426.76L697.09 429.238ZM689.856 426.586C689.805 426.776 689.703 427.157 689.696 427.562C689.511 428.633 689.713 429.4 690.251 430.054C690.789 430.707 691.498 431.101 692.594 431.191C693.57 431.35 694.432 431.174 694.965 430.706C695.593 430.263 695.892 429.528 696.077 428.457L696.371 426.601L690.085 425.731C689.983 426.111 689.907 426.396 689.856 426.586ZM700.796 441.639L699.915 441.504L699.967 439.787L688.492 438.138L688.034 439.849L687.153 439.715L687.888 434.31L688.769 434.444L688.716 436.161L700.192 437.81L700.65 436.099L701.531 436.234L700.796 441.639Z" fill="black"/>
<path d="M697.984 449.849L698.557 448.474L699.412 448.704L698.278 453.696L697.422 453.467L697.545 451.87L692.647 450.762L691.226 457.205L696.124 458.314L696.696 456.939L697.551 457.168L696.443 462.066L695.587 461.837L695.684 460.335L684.317 457.9L683.84 459.3L682.985 459.071L684.094 454.174L684.949 454.403L684.852 455.905L690.155 457.02L691.576 450.576L686.273 449.461L685.745 451.051L684.89 450.822L686.024 445.829L686.879 446.058L686.782 447.56L697.984 449.849Z" fill="black"/>
<path d="M694.952 468.389L694.417 470.385L680.84 471.636L680.345 472.725L679.489 472.496L680.668 467.719L681.523 467.948L681.306 469.52L684.196 469.377L685.501 464.125L683.044 462.652L682.446 464.121L681.591 463.892L682.642 459.59L683.497 459.82L683.382 461.011L694.952 468.389ZM691.795 468.765L693.538 468.723L692.024 467.91L686.686 464.646L685.558 469.233L691.795 468.765Z" fill="black"/>
<path d="M689.427 483.308L690.341 481.414L691.171 481.738L689.613 486.413L680.81 486.193L678.402 486.058L680.505 487.334L687.673 492.514L686.114 497.189L685.285 496.865L685.724 494.844L674.212 492.574L673.519 494.018L672.689 493.694L674.375 488.543L675.205 488.868L674.867 490.509L683.116 492.413L686.683 493.166L684.372 491.528L676.121 485.446L676.522 484.331L685.997 484.324L689.742 484.411L686.379 482.898L678.632 479.498L677.863 481.228L677.033 480.903L678.566 476.323L679.396 476.647L679.083 478.193L689.427 483.308Z" fill="black"/>
<path d="M683.495 503.923L682.771 505.868L669.152 505.376L668.586 506.345L667.757 506.021L669.6 501.422L670.43 501.746L670.022 503.267L672.931 503.435L674.902 498.361L672.642 496.533L671.854 497.952L671.024 497.627L672.645 493.478L673.475 493.802L673.265 494.968L683.495 503.923ZM680.251 503.868L681.943 504.016L680.575 503.038L675.725 499.091L674.027 503.525L680.251 503.868Z" fill="black"/>
<path d="M678.427 512.954L679.259 511.751L680.089 512.075L679.072 514.349C678.85 514.799 678.748 515.179 678.551 515.534C678.277 516.174 678.125 516.744 677.877 517.288C677.133 518.923 676.353 519.936 675.414 520.397C674.501 520.764 673.474 520.794 672.195 520.248C671.295 519.803 670.612 519.314 670.099 518.566C669.587 517.817 669.385 517.05 669.329 516.118C669.273 515.187 669.528 514.236 669.972 513.337C670.169 512.982 670.246 512.697 670.442 512.343C670.639 511.988 670.69 511.798 670.811 511.728L667.067 510.114L665.86 512.337L665.03 512.013L667.534 506.47L668.364 506.795L667.862 508.29L678.427 512.954ZM670.872 513.782C670.427 514.681 670.413 515.492 670.685 516.38C670.956 517.268 671.71 517.877 672.989 518.423C673.984 518.894 674.795 518.907 675.372 518.654C676.069 518.332 676.558 517.648 677.028 516.654C677.225 516.299 677.327 515.919 677.454 515.444C677.531 515.159 677.582 514.969 677.607 514.874L671.495 512.217C671.418 512.502 671.17 513.047 670.872 513.782Z" fill="black"/>
<path d="M661.96 520.052C662.924 519.495 664.027 519.18 665.149 519.175C666.365 519.195 667.601 519.526 668.855 520.168C670.109 520.809 671.122 521.59 671.774 522.579C672.52 523.594 672.836 524.697 672.936 525.845C673.036 526.992 672.825 528.158 672.209 529.317C671.765 530.216 671.104 531.16 670.298 532.268L669.955 532.787L667.023 531.187L667.519 530.097L669.894 530.734C670.11 530.69 670.376 530.455 670.668 530.126C670.96 529.797 671.183 529.347 671.525 528.828C671.919 528.119 672.002 527.428 671.826 526.566C671.719 525.824 671.302 525.101 670.694 524.327C670.061 523.648 669.213 523.014 668.054 522.398C666.964 521.902 665.944 521.527 664.969 521.367C663.993 521.208 663.061 521.263 662.243 521.655C661.451 521.952 660.892 522.516 660.447 523.415C660.174 524.055 659.952 524.505 659.945 524.91C659.843 525.29 659.862 525.601 659.975 525.937L661.311 527.415L660.651 528.359L658.434 526.746C658.511 526.461 658.613 526.081 658.74 525.606C658.867 525.131 658.874 524.725 659.001 524.25C659.103 523.87 659.351 523.325 659.599 522.78C660.215 521.621 660.97 520.703 661.96 520.052Z" fill="black"/>
<path d="M662.332 547.551L661.553 547.037L662.322 545.307L654.216 540.589L655.392 543.043L658.336 551.064L658.785 551.286L659.858 549.944L660.637 550.458L658.033 554.853L657.254 554.339L657.826 552.964L647.782 547.115L646.83 548.388L646.025 547.969L648.654 543.479L649.459 543.898L648.741 545.437L656.917 550.276L655.69 548.012L652.772 539.896L652.157 539.528L651.059 540.965L650.255 540.546L652.91 535.961L653.714 536.38L653.116 537.85L663.161 543.699L664.088 542.521L664.866 543.035L662.332 547.551Z" fill="black"/>
<path d="M655.615 558.178C655.367 558.722 655.239 559.197 655.042 559.552C654.846 559.907 654.649 560.262 654.477 560.521C653.62 561.819 652.77 562.712 651.857 563.078C650.944 563.445 650.037 563.406 649.164 562.866C648.29 562.326 647.872 561.603 647.696 560.741C647.519 559.879 647.628 559.093 647.978 558.168C647.317 559.112 646.544 559.719 645.681 559.896C644.819 560.072 644.034 559.964 643.255 559.449C642.121 558.738 641.444 557.844 641.344 556.696C641.218 555.644 641.575 554.314 642.604 552.756C642.972 552.142 643.41 551.648 643.848 551.154C644.26 550.755 644.647 550.452 644.913 550.217C645.18 549.983 645.326 549.819 645.421 549.844L647.941 551.843L647.427 552.622L645.127 551.701C644.525 552.049 643.966 552.612 643.306 553.555C642.817 554.239 642.734 554.93 642.866 555.577C642.999 556.223 643.562 556.782 644.436 557.321C645.05 557.69 645.716 557.868 646.457 557.761C647.199 557.654 647.852 557.116 648.392 556.242L649.103 555.109L649.977 555.648L649.437 556.522C649.12 556.947 648.993 557.422 648.865 557.897C648.833 558.398 648.896 558.924 649.079 559.38C649.262 559.837 649.661 560.249 650.18 560.592C650.864 561.081 651.555 561.164 652.106 561.006C652.658 560.849 653.191 560.38 653.68 559.696C653.997 559.272 654.219 558.822 654.226 558.417C654.328 558.037 654.309 557.726 654.17 557.485L652.879 556.222L653.539 555.279L656.022 556.657C655.964 557.253 655.767 557.607 655.615 558.178Z" fill="black"/>
<path d="M645.827 571.139L646.943 570.012L647.722 570.527L646.256 572.578C645.964 572.908 645.742 573.357 645.373 573.972C645.03 574.491 644.833 574.845 644.662 575.105C643.684 576.473 642.739 577.34 641.851 577.611C640.964 577.883 640.083 577.749 639.33 577.139C638.646 576.651 638.108 575.997 637.931 575.135C637.73 574.368 637.838 573.582 638.162 572.752C637.502 573.696 636.728 574.303 635.841 574.575C634.979 574.751 634.098 574.617 633.344 574.008C632.331 573.227 631.775 572.263 631.675 571.116C631.575 569.969 632.077 568.474 633.321 566.872C633.613 566.542 633.81 566.188 634.102 565.859C634.711 565.105 635.054 564.586 635.175 564.516L636.641 562.465L637.42 562.979L636.658 564.303L645.827 571.139ZM633.91 567.335C633.129 568.348 632.875 569.298 632.887 570.015C632.898 570.731 633.411 571.479 634.19 571.993C634.943 572.603 635.703 572.806 636.35 572.674C636.997 572.542 637.65 572.004 638.285 571.155C639.066 570.142 639.459 569.433 639.631 569.173L635.103 565.923C634.983 565.993 634.545 566.487 633.91 567.335ZM639.965 570.587L639.33 571.436C638.841 572.119 638.663 572.785 638.795 573.431C638.928 574.078 639.371 574.706 640.055 575.195C640.738 575.683 641.404 575.862 642.025 575.824C642.576 575.667 643.204 575.224 643.865 574.28C644.156 573.951 644.379 573.501 644.576 573.147L644.773 572.792L640.6 569.739C640.549 569.929 640.282 570.163 639.965 570.587Z" fill="black"/>
<path d="M637.051 584.881L635.807 586.483L622.852 581.993L622.027 582.791L621.274 582.181L624.346 578.319L625.1 578.928L624.242 580.226L626.922 581.25L630.311 576.963L628.704 574.598L627.588 575.724L626.834 575.115L629.589 571.677L630.342 572.286L629.752 573.35L637.051 584.881ZM633.966 583.851L635.531 584.473L634.481 583.072L630.988 577.858L628.062 581.556L633.966 583.851Z" fill="black"/>
<path d="M619.699 585.019C620.802 584.703 621.924 584.698 623.064 585.004C624.205 585.309 625.338 586.02 626.421 586.922C627.504 587.823 628.25 588.838 628.661 589.966C629.071 591.095 629.171 592.242 628.961 593.408C628.75 594.574 628.16 595.638 627.404 596.556C626.795 597.309 625.875 598.082 624.835 598.923L624.327 599.296L621.909 596.917L622.76 596.024L624.888 597.206C625.103 597.162 625.439 597.048 625.826 596.744C626.188 596.536 626.6 596.137 626.943 595.617C627.501 595.054 627.8 594.319 627.814 593.508C627.922 592.722 627.72 591.955 627.233 591.112C626.746 590.268 626.164 589.399 625.151 588.619C624.233 587.863 623.385 587.229 622.46 586.879C621.535 586.529 620.654 586.395 619.818 586.476C618.981 586.558 618.258 586.975 617.649 587.729C617.211 588.223 616.893 588.647 616.792 589.027C616.595 589.382 616.613 589.692 616.537 589.977L617.39 591.734L616.47 592.506L614.787 590.425C614.933 590.261 615.13 589.906 615.378 589.361C615.6 588.911 615.797 588.557 615.994 588.202C616.191 587.847 616.508 587.423 616.946 586.929C617.581 586.081 618.596 585.334 619.699 585.019Z" fill="black"/>
<path d="M615.784 604.952C616.099 606.055 616.13 607.082 615.875 608.032C615.62 608.983 615.176 609.882 614.376 610.584C613.526 611.477 612.562 612.034 611.579 612.28C610.597 612.526 609.501 612.436 608.481 612.06C607.461 611.685 606.422 611 605.435 610.124C604.377 609.128 603.561 607.992 603.176 606.769C602.765 605.64 602.57 604.467 602.851 603.422C603.036 602.351 603.601 601.382 604.331 600.559C605.181 599.666 606.145 599.11 607.153 598.769C608.136 598.523 609.232 598.613 610.252 598.988C611.272 599.363 612.31 600.049 613.298 600.925L615.411 598.741L611.442 594.927L610.16 595.908L609.528 595.229L613.075 591.494L613.733 592.078L612.781 593.351L621.118 601.39L622.279 600.479L622.912 601.158L619.39 604.798L618.757 604.119L619.709 602.846L616.069 599.325L613.956 601.509C614.937 602.79 615.468 603.849 615.784 604.952ZM614.609 606.675C614.319 605.476 613.459 604.125 612.003 602.717C610.711 601.454 609.388 600.692 608.127 600.456C606.866 600.22 605.763 600.535 604.913 601.428C604.062 602.321 603.808 603.271 604.098 604.469C604.388 605.667 605.248 607.018 606.799 608.452C608.091 609.715 609.319 610.452 610.555 610.783C611.79 611.114 612.798 610.773 613.648 609.88C614.499 608.988 614.779 607.942 614.609 606.675Z" fill="black"/>
<path d="M597.512 615.742C596.726 615.633 595.681 615.353 594.446 615.022C593.59 614.793 592.925 614.615 592.45 614.488C592.07 614.386 591.759 614.404 591.518 614.544L590.821 614.866L590.188 614.187L591.838 612.592C592.079 612.453 592.415 612.339 593.08 612.517C593.65 612.67 594.505 612.899 595.646 613.205C596.856 613.631 597.806 613.886 598.592 613.994C599.257 614.173 599.783 614.11 600.075 613.781L600.9 612.983L597.267 609.056L595.89 610.011L595.257 609.332L599.039 605.864L599.672 606.543L598.65 607.695L606.549 616.228L607.805 615.343L608.438 616.021L604.777 619.42L604.144 618.741L605.096 617.469L601.463 613.541L600.251 614.643L601.143 621.197L602.399 620.311L603.032 620.99L599.638 624.155L599.005 623.476L599.932 622.298L599.186 615.579C599.014 615.839 598.298 615.851 597.512 615.742Z" fill="black"/>
<path d="M588.233 616.923C589.285 616.797 590.356 616.982 591.325 617.548C592.414 618.043 593.307 618.893 594.243 619.959C595.18 621.025 595.781 622.205 596.071 623.403C596.361 624.601 596.366 625.723 595.991 626.743C595.616 627.763 595.05 628.731 594.131 629.504C592.678 630.744 591.118 631.243 589.547 631.025C587.975 630.808 586.512 629.805 585.012 628.181C584.076 627.115 583.475 625.935 583.185 624.737C582.895 623.539 582.89 622.417 583.29 621.302C583.596 620.162 584.231 619.314 585.151 618.541C586.147 617.484 587.18 617.048 588.233 616.923ZM594.794 625.505C594.625 624.238 593.885 622.817 592.55 621.339C591.309 619.886 590.106 619.054 588.896 618.628C587.686 618.202 586.608 618.423 585.689 619.195C584.769 619.967 584.394 620.987 584.563 622.255C584.733 623.522 585.472 624.943 586.782 626.516C588.023 627.969 589.226 628.801 590.436 629.227C591.672 629.558 592.749 629.337 593.669 628.565C594.589 627.793 594.964 626.773 594.794 625.505Z" fill="black"/>
<path d="M586.101 634.38L587.427 633.615L588.034 634.389L586.099 635.907C585.738 636.116 585.325 636.515 584.888 637.009C584.475 637.408 584.088 637.711 583.847 637.85C582.445 638.901 581.386 639.432 580.455 639.488C579.523 639.544 578.719 639.124 578.111 638.351C577.573 637.697 577.276 636.905 577.29 636.093C577.303 635.282 577.602 634.547 578.186 633.889C577.266 634.661 576.353 635.028 575.447 634.988C574.541 634.949 573.736 634.53 573.129 633.756C572.382 632.741 572.067 631.638 572.277 630.472C572.488 629.306 573.44 628.034 574.988 626.819C575.375 626.515 575.736 626.306 576.003 626.072C576.777 625.465 577.259 625.186 577.404 625.022L579.339 623.503L579.852 624.251L578.735 625.378L586.101 634.38ZM575.716 627.523C574.701 628.27 574.187 629.049 574.078 629.834C573.969 630.62 574.171 631.387 574.778 632.161C575.386 632.935 576 633.303 576.691 633.387C577.382 633.47 578.079 633.147 578.974 632.47C579.989 631.724 580.642 631.186 580.813 630.926L577.403 626.549C577.023 626.447 576.515 626.821 575.716 627.523ZM580.647 632.308L579.873 632.915C579.22 633.453 578.851 634.067 578.768 634.758C578.685 635.449 578.912 636.121 579.545 636.8C580.083 637.453 580.697 637.821 581.293 637.879C581.889 637.937 582.586 637.614 583.481 636.937C583.868 636.634 584.16 636.304 584.547 636.001L584.813 635.767L581.636 631.656C581.3 631.77 581.034 632.004 580.647 632.308Z" fill="black"/>
<g style="mix-blend-mode:overlay">
<circle cx="171.44" cy="166.395" r="2" fill="black"/>
</g>
<g style="mix-blend-mode:overlay">
<circle cx="575.939" cy="140.765" r="2" fill="black"/>
</g>
</g>
</svg>
